<svg width="406" height="249" xmlns="http://www.w3.org/2000/svg" xmlns:xlink="http://www.w3.org/1999/xlink">
    <title>Code of Conduct</title>
    <desc>Code of Conduct</desc>
    <defs>
        <path d="M9.987 51.008L204.67 17.761l128.332 158.738c5.903 7.301 4.769 18.005-2.532 23.908a17 17 0 0 1-7.542 3.486L178.36 231.115a35 35 0 0 1-33.767-12.48L9.987 51.007z"
              id="b"/>
        <filter x="-1.8%" y="-2.8%" width="103.7%" height="111.2%" filterUnits="objectBoundingBox" id="a">
            <feOffset dy="12" in="SourceAlpha" result="shadowOffsetOuter1"/>
            <feColorMatrix values="0 0 0 0 0 0 0 0 0 0.0705882353 0 0 0 0 0.37254902 0 0 0 0.14 0"
                           in="shadowOffsetOuter1"/>
        </filter>
        <ellipse id="c" cx="192.631" cy="124.584" rx="191.921" ry="124.292"/>
    </defs>
    <g fill="none" fill-rule="evenodd">
        <ellipse fill="#5a5a5a" cx="192.631" cy="124.584" rx="191.921" ry="124.292"/>
        <use fill="#000" filter="url(#a)" xlink:href="#b"/>
        <use fill="#FFF" xlink:href="#b"/>
        <path d="M80.43 66.663l56.8-9.896M86.43 73.663l32.701-5.579M121.507 117.773L235.176 97.45M131.507 128.773l109.624-19.689M139.507 139.773l99.624-17.689M148.507 150.773l113.669-20.323M157.507 161.773l113.669-20.323M166.507 172.773l82.624-14.689M219.5 192.5l79.631-13.416"
              stroke-opacity=".26" stroke="#00125F" stroke-width="3" stroke-linecap="round"/>
        <mask id="d" fill="#fff">
            <use xlink:href="#c"/>
        </mask>
        <path d="M216.199 183.842c3.283 0 9.287 4.962 12.331-1.996 3.044-6.959-4.774-12.379-5.676-9.375-.902 3.004 10.073 12.264 15.935 8.167 5.862-4.097-1.73-9.125 1.887-10.533 3.618-1.409 2.8 11.956 6.589 7.472 3.788-4.485 5.539-6.506 6.555-2.195 1.017 4.31 8.326.667 16.57-2.91"
              stroke-opacity=".4" stroke="#FF287A" stroke-width="3" stroke-linecap="round" mask="url(#d)"/>
        <path d="M174.588 231.855l2.563-.504c7.586-1.49 12.528-8.85 11.037-16.437a14 14 0 0 0-1.11-3.346l-2.21-4.614 179.091-32.118c3.194 10.017-2.338 20.727-12.355 23.921-.754.24-1.522.433-2.3.578l-174.716 32.52z"
              fill="#D1DBFF" mask="url(#d)"/>
        <path d="M285.54 159.616c-9.675 2.054-15.962 1.101-16.584-3.457-.621-4.558 24.805-19.366 31.08-21.772 6.274-2.405 12.548 4.086 19.98-.863 7.43-4.949 12.544-14.73 27.021-13.32 14.478 1.41 65.256 26.728 73.135 30.939 7.88 4.211 13.076 30.594-4.739 35.442-17.814 4.847-30.547 7.828-42.077 6.684-11.53-1.144-43.153-4.137-49.152-6.684-5.999-2.547-9.069-13.417-2.796-13.696 6.273-.28 10.78-1.36 11.08-4.205.3-2.845-27.49-15.98-29.38-16.358-1.889-.378-7.892 5.235-17.568 7.29z"
              fill="#F9DBCE" mask="url(#d)"/>
        <path d="M280.084 159.69L394.75 93.272a6.966 6.966 0 0 1 9.29 2.168 6.844 6.844 0 0 1-1.656 9.316l-25.322 18.525a2.41 2.41 0 0 1-3.482-3.197l-87.955 49.309-15.175 3.875a1 1 0 0 1-.995-1.634l10.63-11.944z"
              fill="#00125F"/>
        <path d="M75.43 59.663l56.8-9.896M113.507 106.773L227.176 86.45" stroke-opacity=".26" stroke="#00125F"
              stroke-width="3" stroke-linecap="round"/>
        <path d="M326.306 173.31c-7.347-1.554-24.535-8.033-29.605-9.972-5.07-1.94-18.476-1.45-20.937 1.789-2.46 3.237 16.023 9.04 18.864 10.61 2.84 1.572 11.514 7.607 19.104 9.235 7.59 1.627 16.307 3.238 20.19 3.523 3.885.284-.27-13.63-7.616-15.185z"
              fill="#F9DBCE"/>
        <path d="M375.507 117.227l23.317-15.816" stroke-opacity=".4" stroke="#F4F7FB" stroke-width="2"
              stroke-linecap="round"/>
    </g>
</svg>
