<?xml version="1.0" encoding="UTF-8"?>
<svg width="13px" height="13px" viewBox="0 0 13 13" version="1.1" xmlns="http://www.w3.org/2000/svg"
     xmlns:xlink="http://www.w3.org/1999/xlink">>
    <title>Right Arrow</title>
    <desc>Right arrow</desc>
    <g id="Page-1" stroke="none" stroke-width="1" fill="none" fill-rule="evenodd">
        <g id="querycon18-more-speakers-link-to-topics" transform="translate(-359.000000, -2881.000000)" fill="#202020">
            <g id="register-now" transform="translate(248.000000, 1745.000000)">
                <g id="Group-43" transform="translate(0.000000, 938.000000)">
                    <g id="Group-9">
                        <path d="M123.429639,203.160448 L118.498863,198.370008 C117.991225,197.876664 117.167696,197.876664 116.660058,198.370008 C116.152421,198.862702 116.152421,199.662842 116.660058,200.155536 L119.79363,203.200097 L112.299968,203.200097 C111.581735,203.200097 111,203.78184 111,204.500081 C111,205.217672 111.581735,205.800065 112.299968,205.800065 L119.79363,205.800065 L116.660058,208.843977 C116.152421,209.337321 116.152421,210.136161 116.660058,210.629505 C116.914202,210.876502 117.246994,211 117.579786,211 C117.911927,211 118.244719,210.876502 118.498863,210.629505 L123.429639,205.839065 C124.19012,205.100674 124.19012,203.898839 123.429639,203.160448"
                              id="arrow-right"></path>
                    </g>
                </g>
            </g>
        </g>
    </g>
</svg>
