<svg xmlns="http://www.w3.org/2000/svg" width="116" height="90" viewBox="0 0 116 90">
    <g fill="none" fill-rule="evenodd">
        <path fill="#FDBD39" fill-opacity=".3" d="M85.067 22.735C74.482 6.277 60.429 5.047 47.628 12.28c-10.47 5.914-4.857 21.184-37.7 8.955-22.028-8.203-4.35 36.12 35.557 46.302 46.402 11.838 59.392-13.996 39.582-44.8z"/>
        <path stroke="#FD7939" stroke-linecap="round" stroke-width="5" d="M73.835 70.427c-3.136 7.999-5.699 11.67-16.51 16.33M66.619 81.06l-7.587-1.214"/>
        <path stroke="#FDBD39" stroke-linecap="round" stroke-width="6" d="M37.056 38.81c.092-7.68 16.628-47.997 47.764-31.683 31.136 16.314 19.783 57.215-12.353 59.86C40.33 69.632 12.794 41.058 9.46 24.657"/>
        <path stroke="#FD7939" stroke-linecap="round" stroke-width="5" d="M57.64 67.86c-5.098 6.914-8.525 9.796-20.173 11.5"/>
        <path fill="#FD7939" d="M101.936 31.912c-4.26 1.185-8.009 10.555-1.791 13.466 6.217 2.911 15.86-4.25 15.642-6.89-.218-2.64-9.592-7.761-13.851-6.576z"/>
        <path stroke="#A53803" stroke-linecap="round" stroke-width="5" d="M78.595 30.514c2.23-2.88 7.382-9.536 11.726-3.622"/>
        <path fill="#FF287A" fill-opacity=".2" d="M77.501 40.172c-1.513-6.285 14.717-4.83 13.122 2.512-1.596 7.342-11.609 3.772-13.122-2.512z"/>
        <path stroke="#FD7939" stroke-linecap="round" stroke-width="5" d="M45.308 76.257l-8.404-4.13"/>
        <path fill="#FDBD39" d="M37.85 46.084c.921-3.157 11.955 4.005 15.036-4.669 3.082-8.674 17.072-5.165 10.252 4.727-6.82 9.892-26.211 3.098-25.289-.058z"/>
    </g>
</svg>
