<svg xmlns="http://www.w3.org/2000/svg" width="68" height="106" viewBox="0 0 68 106">
    <g fill="none" fill-rule="evenodd" transform="translate(0 3)">
        <path fill="#00125F" fill-opacity=".1" d="M28.314 42.282c-38.033 10.935-39.119 57.546 5.089 54.583C77.61 93.9 66.347 31.346 28.314 42.282zM21.806 5.255c4.888-.696 14.373-4.596 20.43-2.775 6.058 1.82 9.089 4.317 15.95 3.763 6.86-.554 6.101 2.794-.452 6.776-6.553 3.982-15.075 8.794-17.54 7.864-2.464-.93-14.487-9.455-18.964-11.446-4.478-1.992-4.312-3.487.576-4.182z"/>
        <path stroke="#AAB1CC" stroke-linecap="round" stroke-linejoin="round" stroke-width="5" d="M14.292 18c-8.531 12.456 1.23 21.875 7.399 24.109.682.247-16.048 7.644-16.685 30.636-.637 22.991 50.997 26.368 57.953 4.833 4.638-14.357 1.37-26.312-9.804-35.867 10.2-5.632 13.081-13.308 8.646-23.027"/>
        <g stroke="#AAB1CC" stroke-linecap="round" stroke-width="5">
            <path d="M48.062 92.47c1.316 1.524 2.19 5.427.919 7.272M22.288 91c-2.54 2.042-3.013 5.954-1.18 8.703M13.43 89.21c-4.94-.51-5.1 6.877-5.226 7.572M16.457 90.202c-1.758 1.59-3.465 4.996-1.758 8.609M54.32 90.344c2.402.82.851 4.835 0 7.216M59.806 90c1.806 2.056 1.375 6.268 0 8.004"/>
        </g>
        <path fill="#F4F7FB" d="M40.994 54.204C20.757 45.61.509 85.707 29.365 89.653c28.856 3.945 31.866-26.855 11.629-35.449z"/>
        <path stroke="#AAB1CC" stroke-linecap="round" stroke-linejoin="round" stroke-width="5" d="M11.049 0c-.98 5.663 13.075 15.166 18.174 19.285 5.1 4.118 4.385 10.76 6.872 10.715 2.488-.045 1.742-9.704 10.425-12.345C55.204 15.013 60.834 7.389 61 1.453"/>
        <circle cx="50" cy="29" r="5" fill="#A1A9C6"/>
        <circle cx="25" cy="28" r="5" fill="#A1A9C6"/>
        <path fill="#6B76A3" d="M33.555 29.166c3.35-2.657 7.445-.204 7.445 1.726s-1.461 8.43-4.82 8.096c-3.359-.335-5.975-7.165-2.625-9.822z"/>
    </g>
</svg>
