<?xml version="1.0" encoding="UTF-8"?>
<svg width="170px" height="144px" viewBox="0 0 170 144" version="1.1" xmlns="http://www.w3.org/2000/svg" xmlns:xlink="http://www.w3.org/1999/xlink">
    <!-- Generator: Sketch 48.2 (47327) - http://www.bohemiancoding.com/sketch -->
    <title>Group 40</title>
    <desc>Created with Sketch.</desc>
    <defs></defs>
    <g id="Page-1" stroke="none" stroke-width="1" fill="none" fill-rule="evenodd">
        <g id="Group-40" fill="#FF5A5F" fill-rule="nonzero">
            <path d="M45.8417752,102.704675 C45.8417752,105.660205 43.4635794,108.041049 40.5113362,108.041049 C37.5590931,108.041049 35.1808973,105.660205 35.1808973,102.704675 C35.1808973,99.7491448 37.4770863,97.368301 40.5113362,97.368301 C43.5455861,97.4503991 45.8417752,99.8312429 45.8417752,102.704675 Z M23.8639653,113.459521 C23.8639653,113.952109 23.8639653,114.77309 23.8639653,114.77309 C23.8639653,114.77309 21.3217559,111.489168 15.9093102,111.489168 C6.97057405,111.489168 2.55795385e-12,118.303307 2.55795385e-12,127.744584 C2.55795385e-12,137.103763 6.88856729,144 15.9093102,144 C21.4037627,144 23.8639653,140.633979 23.8639653,140.633979 L23.8639653,142.029647 C23.8639653,142.686431 24.3560058,143.179019 25.0120598,143.179019 L31.6546068,143.179019 L31.6546068,112.310148 C31.6546068,112.310148 25.5861071,112.310148 25.0120598,112.310148 C24.3560058,112.310148 23.8639653,112.884835 23.8639653,113.459521 Z M23.8639653,133.245154 C22.633864,135.051311 20.1736614,136.611174 17.2214182,136.611174 C11.972986,136.611174 7.95465509,133.327252 7.95465509,127.744584 C7.95465509,122.161916 11.972986,118.877993 17.2214182,118.877993 C20.0916546,118.877993 22.7158707,120.519954 23.8639653,122.244014 L23.8639653,133.245154 Z M36.5750121,112.310148 L44.4476604,112.310148 L44.4476604,143.179019 L36.5750121,143.179019 L36.5750121,112.310148 Z M154.172697,111.489168 C148.760251,111.489168 146.218041,114.77309 146.218041,114.77309 L146.218041,97.4503991 L138.345393,97.4503991 L138.345393,143.179019 C138.345393,143.179019 144.413893,143.179019 144.98794,143.179019 C145.643994,143.179019 146.136035,142.604333 146.136035,142.029647 L146.136035,140.633979 C146.136035,140.633979 148.678244,144 154.09069,144 C163.029426,144 170,137.103763 170,127.744584 C170,118.385405 163.029426,111.489168 154.172697,111.489168 Z M152.860589,136.529076 C149.826339,136.529076 147.448143,134.969213 146.218041,133.163056 L146.218041,122.161916 C147.448143,120.519954 150.072359,118.795895 152.860589,118.795895 C158.109021,118.795895 162.127352,122.079818 162.127352,127.662486 C162.127352,133.245154 158.109021,136.529076 152.860589,136.529076 Z M134.245055,124.871152 L134.245055,143.261117 L126.372407,143.261117 L126.372407,125.77423 C126.372407,120.684151 124.732272,118.631699 120.303907,118.631699 C117.925712,118.631699 115.465509,119.86317 113.907381,121.669327 L113.907381,143.179019 L106.034732,143.179019 L106.034732,112.310148 L112.267246,112.310148 C112.9233,112.310148 113.41534,112.884835 113.41534,113.459521 L113.41534,114.77309 C115.711529,112.392246 118.745779,111.489168 121.780029,111.489168 C125.224313,111.489168 128.094549,112.474344 130.390738,114.444698 C133.178968,116.743444 134.245055,119.698974 134.245055,124.871152 Z M86.9271587,111.489168 C81.514713,111.489168 78.9725036,114.77309 78.9725036,114.77309 L78.9725036,97.4503991 L71.0998553,97.4503991 L71.0998553,143.179019 C71.0998553,143.179019 77.168355,143.179019 77.7424023,143.179019 C78.3984563,143.179019 78.8904969,142.604333 78.8904969,142.029647 L78.8904969,140.633979 C78.8904969,140.633979 81.4327062,144 86.845152,144 C95.7838881,144 102.754462,137.103763 102.754462,127.744584 C102.836469,118.385405 95.8658948,111.489168 86.9271587,111.489168 Z M85.6150507,136.529076 C82.5808008,136.529076 80.2026049,134.969213 78.9725036,133.163056 L78.9725036,122.161916 C80.2026049,120.519954 82.826821,118.795895 85.6150507,118.795895 C90.8634829,118.795895 94.8818138,122.079818 94.8818138,127.662486 C94.8818138,133.245154 90.8634829,136.529076 85.6150507,136.529076 Z M64.2932947,111.489168 C66.6714906,111.489168 67.9015919,111.899658 67.9015919,111.899658 L67.9015919,119.206385 C67.9015919,119.206385 61.3410516,116.989738 57.2407139,121.669327 L57.2407139,143.261117 L49.3680656,143.261117 L49.3680656,112.310148 C49.3680656,112.310148 55.4365654,112.310148 56.0106126,112.310148 C56.6666667,112.310148 57.1587072,112.884835 57.1587072,113.459521 L57.1587072,114.77309 C58.6348288,113.049031 61.8330921,111.489168 64.2932947,111.489168 Z M121.944042,58.2896237 C121.534009,57.304447 121.123975,56.2371722 120.713941,55.3340935 C120.057887,53.8563284 119.401833,52.4606613 118.827786,51.1470924 L118.745779,51.0649943 C113.087313,38.7502851 107.018813,26.2713797 100.622287,13.9566705 L100.376266,13.4640821 C99.7202123,12.2326112 99.0641582,10.9190422 98.4081042,9.6054732 C97.5880367,8.1277081 96.7679691,6.56784493 95.4558611,5.09007982 C92.831645,1.80615735 89.0593343,0 85.0410034,0 C80.9406657,0 77.2503618,1.80615735 74.5441389,4.92588369 C73.3140376,6.4036488 72.4119633,7.96351197 71.5918958,9.44127708 C70.9358418,10.7548461 70.2797877,12.0684151 69.6237337,13.299886 L69.3777135,13.7924743 C63.0631934,26.1071836 56.9126869,38.5860889 51.2542209,50.9007982 L51.1722142,51.0649943 C50.5981669,52.3785633 49.9421129,53.7742303 49.2860589,55.2519954 C48.8760251,56.1550741 48.4659913,57.1402509 48.0559575,58.2075257 C46.9898698,61.2451539 46.6618427,64.1185861 47.0718765,67.0741163 C47.9739508,73.2314709 52.0742885,78.4036488 57.7327545,80.7023945 C59.8649301,81.6054732 62.0791124,82.0159635 64.3753015,82.0159635 C65.0313555,82.0159635 65.8514231,81.9338655 66.5074771,81.8517674 C69.2137,81.5233751 72.0019296,80.6202965 74.7081524,79.0604333 C78.0704293,77.1721779 81.2686927,74.4629418 84.8769899,70.5222349 C88.485287,74.4629418 91.7655572,77.1721779 95.0458273,79.0604333 C97.7520502,80.6202965 100.54028,81.5233751 103.246503,81.8517674 C103.902557,81.9338655 104.722624,82.0159635 105.378678,82.0159635 C107.674867,82.0159635 109.971056,81.6054732 112.021225,80.7023945 C117.761698,78.4036488 121.780029,73.1493729 122.682103,67.0741163 C123.338157,64.2006842 123.01013,61.327252 121.944042,58.2896237 Z M84.9589966,62.5587229 C80.5306319,56.9760547 77.6603956,51.7217788 76.6763145,47.2884835 C76.2662808,45.4002281 76.184274,43.7582668 76.4302943,42.2805017 C76.5943078,40.9669327 77.0863483,39.8175599 77.7424023,38.8323831 C79.3005306,36.6157355 81.9247467,35.2200684 84.9589966,35.2200684 C87.9932465,35.2200684 90.6994694,36.5336374 92.1755909,38.8323831 C92.831645,39.8175599 93.3236855,40.9669327 93.487699,42.2805017 C93.7337192,43.7582668 93.6517125,45.4823261 93.2416787,47.2884835 C92.2575977,51.6396807 89.3873613,56.8939567 84.9589966,62.5587229 Z M117.679691,66.4173318 C117.105644,70.686431 114.235408,74.3808438 110.217077,76.022805 C108.248915,76.8437856 106.116739,77.0900798 103.984563,76.8437856 C101.934395,76.5974914 99.8842258,75.940707 97.7520502,74.709236 C94.799807,73.0672748 91.8475639,70.5222349 88.4032803,66.7457241 C93.815726,60.0957811 97.0959961,54.0205245 98.3260974,48.6020525 C98.9001447,46.0570125 98.9821515,43.7582668 98.7361312,41.6237172 C98.4081042,39.5712657 97.6700434,37.6830103 96.5219489,36.041049 C93.9797395,32.3466363 89.7153883,30.2120867 84.9589966,30.2120867 C80.2026049,30.2120867 75.9382537,32.4287343 73.3960444,36.041049 C72.2479498,37.6830103 71.509889,39.5712657 71.181862,41.6237172 C70.853835,43.7582668 70.9358418,46.1391106 71.5918958,48.6020525 C72.8219971,54.0205245 76.184274,60.1778791 81.514713,66.8278221 C78.1524361,70.604333 75.1181862,73.1493729 72.1659431,74.7913341 C70.0337675,76.022805 67.9835986,76.6795895 65.9334298,76.9258837 C63.7192475,77.1721779 61.5870719,76.8437856 59.7009165,76.1049031 C55.6825856,74.4629418 52.8123493,70.7685291 52.238302,66.4994299 C51.9922817,64.4469783 52.1562952,62.3945268 52.9763628,60.0957811 C53.222383,59.2748005 53.6324168,58.4538198 54.0424506,57.4686431 C54.6164978,56.1550741 55.2725519,54.7594071 55.9286059,53.36374 L56.0106126,53.1995439 C61.6690786,40.9669327 67.7375784,28.4880274 74.0520984,16.3375143 L74.2981187,15.8449259 C74.9541727,14.613455 75.6102267,13.299886 76.2662808,12.0684151 C76.9223348,10.7548461 77.6603956,9.52337514 78.5624699,8.45610034 C80.2846117,6.48574686 82.5808008,5.41847206 85.1230101,5.41847206 C87.6652195,5.41847206 89.9614086,6.48574686 91.6835504,8.45610034 C92.5856247,9.52337514 93.3236855,10.7548461 93.9797395,12.0684151 C94.6357935,13.299886 95.2918476,14.613455 95.9479016,15.8449259 L96.1939219,16.3375143 C102.426435,28.5701254 108.494935,41.0490308 114.153401,53.281642 L114.153401,53.36374 C114.809455,54.677309 115.383502,56.1550741 116.039556,57.4686431 C116.44959,58.4538198 116.859624,59.2748005 117.105644,60.0957811 C117.761698,62.2303307 118.007718,64.2827822 117.679691,66.4173318 Z" id="Shape"></path>
        </g>
    </g>
</svg>