<?xml version="1.0" encoding="UTF-8"?>
<svg width="169px" height="159px" viewBox="0 0 169 159" version="1.1" xmlns="http://www.w3.org/2000/svg" xmlns:xlink="http://www.w3.org/1999/xlink">
    <!-- Generator: Sketch 48.2 (47327) - http://www.bohemiancoding.com/sketch -->
    <title>Page 1</title>
    <desc>Created with Sketch.</desc>
    <defs>
        <polygon id="path-1" points="0.202307143 0.470828571 24.4708071 0.470828571 24.4708071 39.8571429 0.202307143 39.8571429"></polygon>
        <polygon id="path-3" points="0.000334006382 0.967 82.8324 0.967 82.8324 50.9345 0.000334006382 50.9345"></polygon>
    </defs>
    <g id="querycon18-copy-5" stroke="none" stroke-width="1" fill="none" fill-rule="evenodd" transform="translate(-1061.000000, -7585.000000)">
        <g id="Group-36" transform="translate(995.000000, 7514.000000)">
            <g id="view-github-project">
                <g id="Page-1" transform="translate(66.000000, 70.000000)">
                    <g id="Group-20" transform="translate(0.000000, 106.000000)">
                        <path d="M50.8718571,38.5166571 L43.3742143,38.5166571 C43.3446429,38.5166571 43.3221429,38.5089429 43.3022143,38.4838714 L36.8395714,30.6030857 L30.3756429,38.4838714 C30.3582857,38.5089429 30.3280714,38.5166571 30.3042857,38.5166571 L24.3025714,38.5166571 C24.2601429,38.5166571 24.228,38.4973714 24.2112857,38.4613714 C24.1932857,38.4343714 24.2029286,38.3951571 24.2254286,38.3649429 L33.7442143,26.6797286 L24.3302143,15.1044429 C24.3077143,15.0723 24.3077143,15.0318 24.3192857,14.9970857 C24.3353571,14.9752286 24.3694286,14.9430857 24.399,14.9430857 L31.9024286,14.9430857 C31.9249286,14.9430857 31.9596429,14.9604429 31.9737857,14.9900143 L37.6386429,22.0087286 L43.4089286,14.9829429 C43.4256429,14.9604429 43.4532857,14.9430857 43.4802857,14.9430857 L49.5964286,14.9430857 C49.6311429,14.9430857 49.6690714,14.9752286 49.6806429,14.9970857 C49.6986429,15.0318 49.6902857,15.0723 49.6690714,15.1044429 L40.7404286,25.8260143 L50.9445,38.3649429 C50.9695714,38.3951571 50.9740714,38.4343714 50.9535,38.4613714 C50.9393571,38.4973714 50.9065714,38.5166571 50.8718571,38.5166571" id="Fill-3" fill="#1F3562"></path>
                        <path d="M102.346907,28.2090214 C102.334693,28.2315214 102.301907,28.2482357 102.264621,28.2482357 L85.1041929,28.2482357 C85.4609786,32.2416643 88.0561929,34.51995 92.2598357,34.51995 C94.84605,34.51995 97.59105,33.63345 101.473264,31.5711643 C101.535621,31.5370929 101.61405,31.5968786 101.61405,31.6682357 L101.602479,36.9403071 C101.594121,36.9872357 101.577407,37.0142357 101.550407,37.0225929 C97.9388357,38.5480929 94.3079786,39.5785929 91.4652643,39.5785929 C84.0762643,39.5785929 78.7103357,34.1998071 78.7103357,26.7812357 C78.7103357,19.3710214 84.0762643,13.9851643 91.4652643,13.9851643 C98.2043357,13.9851643 102.538479,18.5263071 102.538479,24.76845 C102.538479,25.7790214 102.35655,28.1312357 102.346907,28.2090214 M91.4652643,19.0945929 C88.1474786,19.0945929 85.8769071,21.1073786 85.2231214,24.6173786 L96.5258357,24.6173786 L96.5258357,24.3865929 C96.5258357,21.5843786 94.4571214,19.0945929 91.4652643,19.0945929" id="Fill-5" fill="#1F3562"></path>
                        <path d="M134.127579,38.5173 C134.067793,38.5173 134.031793,38.4793714 134.031793,38.4202286 L134.031793,15.0375857 C134.031793,14.9932286 134.063293,14.9553 134.10765,14.9456571 L140.309936,14.9456571 C140.354936,14.9553 140.383864,14.9932286 140.383864,15.0375857 L140.383864,38.4202286 C140.383864,38.4793714 140.34465,38.5173 140.292579,38.5173 L134.127579,38.5173 Z M137.215864,10.0760143 C135.107293,10.0760143 133.397936,8.39044286 133.397936,6.31915714 C133.397936,4.18872857 135.107293,2.45172857 137.215864,2.45172857 C139.321864,2.45172857 141.026721,4.18872857 141.026721,6.31915714 C141.026721,8.39044286 139.321864,10.0760143 137.215864,10.0760143 Z" id="Fill-7" fill="#1F3562"></path>
                        <g id="Group-11" transform="translate(52.071429, 13.521214)">
                            <mask id="mask-2" fill="white">
                                <use xlink:href="#path-1"></use>
                            </mask>
                            <g id="Clip-10"></g>
                            <path d="M11.8270929,0.470828571 C10.0778786,0.470828571 8.31580714,0.783257143 6.46373571,1.42161429 L0.292307143,1.42161429 C0.240235714,1.42161429 0.202307143,1.46854286 0.202307143,1.51547143 L0.202307143,39.8574 C2.06916429,39.6092571 4.33973571,38.9439 6.57366429,37.3631143 L6.56852143,25.6997571 C8.08245,25.9189714 9.34116429,26.0571857 10.5523071,26.0571857 C19.0026643,26.0571857 24.4708071,20.9966143 24.4708071,13.1608286 C24.4708071,5.69082857 19.2655929,0.470828571 11.8270929,0.470828571 M10.1473071,21.4755429 C9.02102143,21.4755429 7.87866429,21.3199714 6.56852143,20.9689714 L6.57623571,5.9634 C8.11459286,5.47482857 9.45752143,5.24597143 10.7830929,5.24597143 C15.0793071,5.24597143 17.9631643,8.4114 17.9631643,13.1241857 C17.9631643,18.1989 14.89545,21.4755429 10.1473071,21.4755429" id="Fill-9" fill="#1F3562" mask="url(#mask-2)"></path>
                        </g>
                        <path d="M122.842414,2.56782857 L122.842414,14.8065429 C121.031486,14.2826143 119.4372,14.0447571 117.831986,14.0447571 C110.475129,14.0447571 104.928557,19.5868286 104.928557,26.9507571 C104.928557,34.2671143 109.8252,39.5790429 116.559129,39.5790429 C118.891414,39.5790429 121.082914,38.9966143 123.6492,37.6755429 L123.638914,39.7924714 C125.334771,39.4652571 127.2807,38.7844714 129.204129,37.4222571 L129.204129,0.0632571429 C127.319914,0.312042857 125.0847,0.944614286 122.842414,2.56782857 Z M122.842414,33.0559714 C120.906129,34.0671857 119.186486,34.5506143 117.566486,34.5506143 C113.738914,34.5506143 111.4452,31.8499714 111.4452,27.3204 C111.4452,22.0888286 114.371486,18.6984 118.898486,18.6984 C120.1482,18.6984 121.365771,19.0011857 122.842414,19.6684714 L122.842414,33.0559714 Z" id="Fill-12" fill="#1F3562"></path>
                        <path d="M168.232886,14.6637643 C168.232886,14.5171929 168.106886,14.4008357 167.962886,14.4008357 L162.956957,14.4098357 C162.802029,14.4098357 162.685029,14.5339071 162.685029,14.6811214 L162.685029,15.5271214 L162.559029,15.5271214 C160.2486,14.5171929 158.2686,14.0427643 156.328457,14.0427643 C149.397171,14.0427643 143.9586,19.7956929 143.9586,27.1576929 C143.9586,34.5987643 148.823743,39.5796214 156.062957,39.5796214 C157.992171,39.5796214 160.481957,39.45105 162.799457,36.7754786 L162.799457,39.7827643 C164.445171,39.4349786 166.381457,38.7413357 168.223243,37.4157643 L168.232886,14.6637643 Z M161.858957,33.0076929 C159.988243,34.0844786 158.386886,34.6058357 156.957814,34.6058357 C152.860243,34.6058357 150.410314,31.9103357 150.410314,27.36855 C150.410314,22.2128357 153.297386,18.7484786 157.596814,18.7484786 C158.7546,18.7484786 160.143814,19.1881929 161.858957,20.0933357 L161.858957,33.0076929 Z" id="Fill-14" fill="#1F3562"></path>
                        <path d="M7.16766429,32.5890643 L22.6952357,32.5832786 C22.4618786,34.31835 21.8736643,36.3536357 20.5281643,38.4204214 L7.20109286,38.4204214 L4.55252143,38.4204214 L4.37252143,38.4204214 C2.39702143,38.4204214 0.769307143,36.8891357 0.575164286,34.9522071 C0.570664286,34.9239214 0.556521429,34.8975643 0.550735714,34.8750643 L0.550735714,18.9656357 L0.550735714,4.25256429 C0.556521429,4.23006429 0.570664286,4.20242143 0.575164286,4.17799286 C0.769307143,2.23463571 2.39702143,0.698207143 4.37252143,0.698207143 C4.44066429,0.698207143 4.49530714,0.711064286 4.55252143,0.711064286 L22.6611643,0.705278571 C22.4252357,2.43777857 21.83895,4.52063571 20.49345,6.58292143 L7.16766429,6.58292143 L7.16766429,14.9149929 L20.3565214,14.9149929 C20.4137357,14.9149929 20.4542357,14.9599929 20.4542357,15.0069214 L20.4542357,20.7900643 C20.4542357,20.8344214 20.4137357,20.8787786 20.3565214,20.8787786 L7.16766429,20.8787786 L7.16766429,32.5832786 L7.16766429,32.5890643 Z" id="Fill-16" fill="#1F3562"></path>
                        <path d="M50.8741071,38.51415 L43.3758214,38.51415 C43.34625,38.51415 43.3218214,38.5070786 43.3018929,38.4845786 L36.8431071,30.6018643 L30.3785357,38.4845786 C30.3605357,38.5070786 30.3283929,38.51415 30.3033214,38.51415 L24.2996786,38.51415 C24.2623929,38.51415 24.2328214,38.4974357 24.21225,38.46015 C24.1955357,38.4325071 24.2026071,38.3932929 24.22575,38.3630786 L33.7438929,26.6804357 L24.33375,15.1019357 C24.30675,15.0672214 24.30675,15.03315 24.3196071,14.9984357 C24.33375,14.9733643 24.36975,14.9412214 24.4044643,14.9412214 L31.9014643,14.9412214 C31.9239643,14.9412214 31.9586786,14.9585786 31.9741071,14.9875071 L37.6408929,22.0094357 L43.4079643,14.9804357 C43.4259643,14.9585786 43.4536071,14.9412214 43.4825357,14.9412214 L49.59675,14.9412214 C49.6333929,14.9412214 49.6681071,14.9733643 49.6835357,14.9984357 C49.6976786,15.03315 49.6931786,15.0723643 49.6681071,15.1019357 L40.74075,25.82415 L50.9428929,38.3630786 C50.9705357,38.3932929 50.9763214,38.4325071 50.9563929,38.46015 C50.9383929,38.4974357 50.9088214,38.51415 50.8741071,38.51415" id="Fill-18" fill="#1F3562"></path>
                        <path d="M102.346907,28.20645 C102.334693,28.22895 102.301907,28.2463071 102.264621,28.2463071 L85.1093357,28.2463071 C85.45905,32.2390929 88.0561929,34.5186643 92.2598357,34.5186643 C94.84605,34.5186643 97.59105,33.6347357 101.476479,31.57245 C101.536907,31.5351643 101.616621,31.59495 101.616621,31.6695214 L101.60505,36.9383786 C101.597979,36.9846643 101.579979,37.0123071 101.550407,37.0206643 C97.94205,38.5468071 94.3099071,39.5785929 91.4652643,39.5785929 C84.0743357,39.5785929 78.7154786,34.20045 78.7154786,26.7793071 C78.7154786,19.3710214 84.0743357,13.9851643 91.4652643,13.9851643 C98.2069071,13.9851643 102.538479,18.5218071 102.538479,24.7665214 C102.538479,25.7770929 102.35655,28.1273786 102.346907,28.20645 M91.4652643,19.0926643 C88.1474786,19.0926643 85.8736929,21.10545 85.2231214,24.6173786 L96.5258357,24.6173786 L96.5258357,24.3865929 C96.5258357,21.5818071 94.4584071,19.0926643 91.4652643,19.0926643" id="Fill-20" fill="#1F3562"></path>
                        <path d="M134.1288,38.51415 C134.069014,38.51415 134.033014,38.4794357 134.033014,38.4202929 L134.033014,15.0357214 C134.033014,14.9900786 134.061943,14.9534357 134.107586,14.9457214 L140.309229,14.9457214 C140.354871,14.9534357 140.386371,14.9900786 140.386371,15.0357214 L140.386371,38.4202929 C140.386371,38.4794357 140.347157,38.51415 140.295086,38.51415 L134.1288,38.51415 Z M137.217086,10.0760786 C135.1098,10.0760786 133.396586,8.38857857 133.396586,6.31665 C133.396586,4.18622143 135.1098,2.44857857 137.217086,2.44857857 C139.3218,2.44857857 141.029229,4.18622143 141.029229,6.31665 C141.029229,8.38857857 139.3218,10.0760786 137.217086,10.0760786 Z" id="Fill-22" fill="#1F3562"></path>
                        <path d="M63.8985214,13.98735 C62.1493071,13.98735 60.3898071,14.3029929 58.5351643,14.9381357 L52.3650214,14.9381357 C52.3116643,14.9381357 52.27695,14.9850643 52.27695,15.0352071 L52.27695,53.3764929 C54.1405929,53.12835 56.4137357,52.4610643 58.6450929,50.8815643 L58.63995,39.2214214 C60.1538786,39.4399929 61.4125929,39.57885 62.6237357,39.57885 C71.0740929,39.57885 76.5422357,34.51635 76.5422357,26.6824929 C76.5422357,19.2047786 71.3395929,13.98735 63.8985214,13.98735 M62.2187357,34.9946357 C61.0950214,34.9946357 59.9520214,34.8416357 58.63995,34.4887071 L58.6495929,19.4850643 C60.1885929,18.99135 61.5315214,18.7657071 62.8570929,18.7657071 C67.1507357,18.7657071 70.0371643,21.9324214 70.0371643,26.6452071 C70.0371643,31.7192786 66.96945,34.9946357 62.2187357,34.9946357" id="Fill-24" fill="#1F3562"></path>
                        <path d="M122.842414,2.56313571 L122.842414,14.8044214 C121.034057,14.2779214 119.440414,14.0445643 117.831986,14.0445643 C110.4777,14.0445643 104.929843,19.5840643 104.929843,26.9486357 C104.929843,34.2649929 109.8252,39.57885 116.561057,39.57885 C118.891414,39.57885 121.082914,38.9964214 123.6492,37.67535 L123.638914,39.79035 C125.337343,39.46185 127.282629,38.78235 129.206057,37.4227071 L129.206057,0.0585642857 C127.322486,0.309278571 125.085986,0.942492857 122.842414,2.56313571 Z M122.842414,33.0564214 C120.911271,34.0637786 119.189057,34.5510643 117.566486,34.5510643 C113.738914,34.5510643 111.4452,31.84785 111.4452,27.3182786 C111.4452,22.0886357 114.3747,18.6956357 118.901057,18.6956357 C120.150771,18.6956357 121.368343,18.99585 122.842414,19.66635 L122.842414,33.0564214 Z" id="Fill-26" fill="#1F3562"></path>
                        <path d="M168.232886,14.6612571 C168.232886,14.5172571 168.106886,14.3983286 167.962886,14.3983286 L162.956957,14.4073286 C162.8046,14.4073286 162.685029,14.5314 162.685029,14.6760429 L162.685029,15.5271857 L162.559029,15.5271857 C160.2486,14.5172571 158.269886,14.0434714 156.328457,14.0434714 C149.397171,14.0434714 143.9586,19.7938286 143.9586,27.1571143 C143.9586,34.5962571 148.823743,39.5803286 156.062957,39.5803286 C157.996671,39.5803286 160.481957,39.4511143 162.802029,36.7729714 L162.802029,39.7828286 C164.445171,39.4356857 166.384029,38.7388286 168.224529,37.4139 L168.232886,14.6612571 Z M161.858957,33.0051857 C159.990814,34.0826143 158.386886,34.6059 156.957814,34.6059 C152.860243,34.6059 150.410314,31.9084714 150.410314,27.3686143 C150.410314,22.2129 153.298671,18.7459714 157.596814,18.7459714 C158.7546,18.7459714 160.143814,19.1837571 161.858957,20.0934 L161.858957,33.0051857 Z" id="Fill-28" fill="#1F3562"></path>
                        <path d="M7.16985,32.5859143 L22.6954929,32.5839857 C22.4595643,34.3158429 21.8739214,36.3517714 20.5284214,38.4217714 L7.20199286,38.4217714 L4.55406429,38.4217714 L4.37277857,38.4217714 C2.39727857,38.4217714 0.771492857,36.8898429 0.575421429,34.9490571 C0.570278571,34.9246286 0.558707143,34.8976286 0.552921429,34.8725571 L0.552921429,18.9657 L0.552921429,4.25005714 C0.558707143,4.22755714 0.570278571,4.19798571 0.575421429,4.17548571 C0.771492857,2.23212857 2.39727857,0.6957 4.37277857,0.6957 C4.43706429,0.6957 4.49620714,0.707914286 4.55406429,0.707914286 L22.6594929,0.7002 C22.4242071,2.43591429 21.8379214,4.51812857 20.4937071,6.57848571 L7.16985,6.57848571 L7.16985,14.9124857 L20.35935,14.9124857 C20.4159214,14.9124857 20.4564214,14.9574857 20.4564214,15.0018429 L20.4564214,20.7869143 C20.4564214,20.8319143 20.4159214,20.8769143 20.35935,20.8769143 L7.16985,20.8769143 L7.16985,32.5839857 L7.16985,32.5859143 Z" id="Fill-30" fill="#1F3562"></path>
                    </g>
                    <g id="Group-23" transform="translate(41.000000, 0.000000)">
                        <path d="M56.0535,78.1639 L84.4165,30.0949 C83.9495,28.7669 83.4255,27.4659 82.8345,26.1879 L32.6225,4.9899 L0.4915,50.9669 C0.6085,51.7119 0.7405,52.4569 0.8865,53.1949 L56.0535,78.1639 Z" id="Fill-1" fill="#F7B916"></path>
                        <g id="Group-37" transform="translate(0.000000, 0.033000)">
                            <mask id="mask-4" fill="white">
                                <use xlink:href="#path-3"></use>
                            </mask>
                            <g id="Clip-36"></g>
                            <path d="M50.8074,34.3335 L49.0584,29.3835 L34.2214,9.5535 L36.8854,8.8895 L62.4714,31.0045 L77.5244,26.6965 C79.2934,26.2445 81.2974,26.1445 82.8324,26.1555 C78.1004,15.9475 69.4404,7.5725 58.0114,3.4955 C35.4104,-4.5545 10.5614,7.2525 2.5224,29.8615 C0.0364,36.8575 -0.5506,44.0695 0.4924,50.9345 L36.5534,38.4065 L50.8074,34.3335 Z" id="Fill-35" fill="#1F3561" mask="url(#mask-4)"></path>
                        </g>
                        <path d="M84.4187,30.096 C83.0937,30.945 81.1587,32.08 79.2287,32.699 L64.1367,36.998 L54.0717,69.317 L51.4577,70.172 L53.5877,45.486 L52.3947,40.363 L38.2597,44.401 L0.8827,53.196 C3.8527,67.573 14.0287,80.101 28.8697,85.39 C51.4767,93.444 76.3087,81.63 84.3557,59.036 C87.8187,49.3 87.5947,39.142 84.4187,30.096" id="Fill-38" fill="#1F3561"></path>
                    </g>
                </g>
            </g>
        </g>
    </g>
</svg>