<svg width="286" height="304" xmlns="http://www.w3.org/2000/svg" xmlns:xlink="http://www.w3.org/1999/xlink"><defs><path d="M35.414 104.117c-3.514 12.93.142 24.315 13.73 31.777 66.636 36.595 277.522-57.72 191.537-112.617-21.73-13.874-48.964-15.882-76.457-10.543a56.608 56.608 0 0 0-3.492-2.41C93.81-32.403-40.201 69.493 11.662 97.972c6.415 3.525 14.55 5.49 23.754 6.145h-.002z" id="a"/><path d="M9.716 7.315C6.94 14.62 4.543 19.5 2.893 21.583-.497 25.862.767 31.71 5.713 34.64c4.95 2.932 11.707 1.84 15.097-2.443 3.11-3.928 6.163-10.139 9.536-19.014C32.22 8.256 29.12 2.946 23.424 1.326 17.725-.294 11.59 2.387 9.716 7.316z" id="c"/><path d="M38.338 84.526c13.876 0 38.238-21.31 38.238-43.574 0-22.263-17.12-40.31-38.238-40.31S.101 18.688.101 40.951s24.36 43.574 38.237 43.574z" id="e"/><path d="M38.338 84.526c13.876 0 38.238-21.31 38.238-43.574 0-22.263-17.12-40.31-38.238-40.31S.101 18.688.101 40.951s24.36 43.574 38.237 43.574z" id="g"/><path d="M38.338 84.526c13.876 0 38.238-21.31 38.238-43.574 0-22.263-17.12-40.31-38.238-40.31S.101 18.688.101 40.951s24.36 43.574 38.237 43.574z" id="i"/></defs><g fill="none" fill-rule="evenodd"><path d="M37.414 263.117c-3.514 12.93.142 24.315 13.73 31.777 66.636 36.595 277.522-57.72 191.537-112.617-21.73-13.874-48.964-15.882-76.457-10.543a56.608 56.608 0 0 0-3.492-2.41c-66.922-42.727-200.933 59.169-149.07 87.648 6.415 3.525 14.55 5.49 23.754 6.145h-.002z" fill="#4A9DFF" fill-opacity=".1" fill-rule="nonzero"/><g transform="translate(2 159)"><mask id="b" fill="#fff"><use xlink:href="#a"/></mask><use fill-opacity=".1" fill="#3F64ED" xlink:href="#a"/><path d="M102.048 57.592c-15.967 4.912-8.912 63.602 12.683 84.87 4.805 4.733 11.126 8.3 20.353 4.664 7.238-2.851 15.982-3.714 18.739-4.664 16.487-5.678-2.735-43.896 16.086-60.167 18.82-16.269-5.998-29.469-13.181-33.418-7.182-3.95-38.713 3.804-54.68 8.717v-.002z" fill="#3F64ED" fill-rule="nonzero" mask="url(#b)"/></g><path d="M155.537 251c9.484-5.092 17.342-11.832 25.867-18.26 34.4-25.942 64.482-46.125 72.596-53.025L237.34 167c-28.394 19.058-48.475 29.698-95.34 38.295L155.537 251z" fill="#3F64ED" fill-rule="nonzero"/><path d="M99.732 165.54L81.272 157c-17.89 12.5-18.091 10.978-26.148 19.007-4.621 4.608-7.89 8.716-9.862 12.744-3.312 6.762-3.292 14.193 2.113 20.02 6.137 6.613 14.874 6.249 34.81 14.652 12.66 5.336 20.094 14.577 25.06 14.577L152 204.282c-.322 0-26.826.49-42.441-1.42-15.616-1.911-26.022-4.312-36.193-9.119 6.833-6.745 9.803-16.633 26.366-28.205v.001z" fill="#3F64ED" fill-rule="nonzero"/><path d="M130.846 188.878c-1.865 7.588-3.65 12.724-5.034 14.992-2.843 4.66-.876 10.311 4.391 12.617 5.27 2.308 11.843.4 14.687-4.264 2.607-4.278 4.88-10.814 7.148-20.035 1.257-5.119-2.465-10.011-8.317-10.925-5.853-.914-11.616 2.495-12.875 7.615z" fill="#F9DBCE" fill-rule="nonzero"/><g transform="translate(122.455 180.72)"><mask id="d" fill="#fff"><use xlink:href="#c"/></mask><path d="M19.774 24.715c14 0 38.583-21.66 38.583-44.288 0-22.627-17.274-40.97-38.583-40.97-21.31 0-38.582 18.343-38.582 40.97 0 22.628 24.58 44.288 38.582 44.288z" fill-opacity=".3" fill="#D69E85" fill-rule="nonzero" mask="url(#d)" transform="rotate(12 19.774 -17.915)"/></g><g transform="translate(67 80)"><ellipse fill="#AF8B76" fill-rule="nonzero" cx="86.262" cy="43.883" rx="13.728" ry="13.684"/><ellipse fill="#AF8B76" fill-rule="nonzero" cx="66.198" cy="42.83" rx="13.728" ry="13.684"/><ellipse fill="#AF8B76" fill-rule="nonzero" cx="52.47" cy="53.356" rx="13.728" ry="13.684"/><ellipse fill="#AF8B76" fill-rule="nonzero" cx="49.303" cy="65.987" rx="13.728" ry="13.684"/><ellipse fill="#AF8B76" fill-rule="nonzero" cx="101.046" cy="56.514" rx="13.728" ry="13.684"/><ellipse fill="#AF8B76" fill-rule="nonzero" cx="106.325" cy="71.249" rx="13.728" ry="13.684"/><path d="M66.838 120.847c13.572 2.885 41.832-12.895 46.461-34.671 4.629-21.777-8.366-42.99-29.02-47.38-20.658-4.39-41.155 9.703-45.784 31.48-4.629 21.776 14.77 47.686 28.343 50.571z" fill="#F9DBCE" fill-rule="nonzero"/><g transform="translate(37.22 37.238)"><mask id="f" fill="#fff"><use xlink:href="#e"/></mask><path d="M43.926 49.675c.048 2.968 12.485 5.723 12.485 2.446 0-3.277-12.53-5.415-12.485-2.446z" fill="#F8CAB6" fill-rule="nonzero" mask="url(#f)"/></g><g transform="translate(37.22 37.238)"><mask id="h" fill="#fff"><use xlink:href="#g"/></mask><path d="M3.8 42.55c.045 2.968 12.484 5.723 12.484 2.446 0-3.277-12.53-5.415-12.485-2.446z" fill="#F8CAB6" fill-rule="nonzero" mask="url(#h)" transform="rotate(-12 10.041 43.808)"/></g><g transform="translate(37.22 37.238)"><mask id="j" fill="#fff"><use xlink:href="#i"/></mask><path d="M3.798 18.321c-.337-.017-.154 0-1.728-.143-1.684-.151-2.818-.21-4.08-.173-2.758.082-5.122.668-7.126 2.084-.156.11-.321.225-.5.347-.377.257-2.184 1.451-2.693 1.8-4.683 3.198-7.41 6.18-8.683 10.846a4.272 4.272 0 0 0 3.045 5.118 4.294 4.294 0 0 0 5.231-2.873c.62-2.267 2.098-3.885 5.255-6.04.443-.302 2.247-1.496 2.693-1.8.216-.147.42-.29.615-.426.392-.277 1.199-.477 2.419-.514.833-.025 1.687.02 3.054.143l1.034.094c.406.034.734.057 1.045.073 1.042.05 1.83.013 2.69-.238a4.272 4.272 0 0 0 2.943-5.117 4.292 4.292 0 0 0-4.989-3.174l-.225-.007z" fill="#EDC7B7" fill-rule="nonzero" mask="url(#j)"/></g><ellipse fill="#AF8B76" fill-rule="nonzero" cx="65.142" cy="41.777" rx="14.784" ry="14.735"/><ellipse fill="#AF8B76" fill-rule="nonzero" cx="99.989" cy="57.565" rx="13.728" ry="13.684"/><ellipse fill="#AF8B76" fill-rule="nonzero" cx="85.207" cy="45.988" rx="13.728" ry="13.684"/><ellipse fill="#AF8B76" fill-rule="nonzero" cx="109.494" cy="72.302" rx="10.559" ry="10.526"/><ellipse fill="#AF8B76" fill-rule="nonzero" cx="106.853" cy="80.196" rx="6.864" ry="6.841"/><ellipse fill="#AF8B76" fill-rule="nonzero" cx="50.886" cy="50.724" rx="7.92" ry="7.894"/><path d="M35.819 34.768c4.732-4.733 8.548-7.243 10.58-5.114 1.993 2.092-.53 5.784-5.242 10.286-4.578 4.375-8.413 6.853-10.409 5.221-2.248-1.837.315-5.636 5.07-10.395v.002zm-1.657 6.805c1.404-.909 3.143-2.326 4.803-3.913 1.685-1.61 3.144-3.255 4.046-4.577.099-.142.188-.28.273-.413a9.896 9.896 0 0 0-.45.282c-1.371.902-3.091 2.364-4.772 4.044-1.603 1.603-3.034 3.27-3.959 4.614l.059-.039v.002zm-7.526-15.89c6.533-6.537 11.995-10.131 14.477-7.528 2.443 2.565-1.162 7.843-7.674 14.07-6.335 6.058-11.866 9.634-14.306 7.636-2.69-2.203.991-7.662 7.503-14.178zm-2.555 10.099c2.104-1.361 4.696-3.473 7.164-5.836 2.51-2.399 4.685-4.854 6.043-6.842.681-.997 1.132-1.841 1.324-2.46.013-.041.025-.08.034-.118l-.097.027c-.633.188-1.505.637-2.542 1.319-2.06 1.356-4.623 3.535-7.126 6.04-2.463 2.463-4.655 5.03-6.037 7.08-.555.824-.962 1.54-1.201 2.1.642-.242 1.474-.688 2.438-1.31zm-10.44-21.87c9.917-9.914 18.467-15.54 21.795-12.05 3.294 3.453-2.346 11.7-12.242 21.162C13.559 32.23 4.844 37.86 1.567 35.18-1.956 32.3 3.828 23.726 13.64 13.911zm-9.872 18.83c.3-.002.722-.087 1.245-.264 1.145-.386 2.641-1.169 4.384-2.294 3.421-2.211 7.612-5.624 11.603-9.44 4.057-3.877 7.578-7.85 9.793-11.09 2.112-3.09 2.763-5.18 2.346-5.617-.106-.112-.523-.153-1.387.102-1.116.33-2.59 1.09-4.319 2.224-3.357 2.208-7.503 5.733-11.548 9.777-3.98 3.981-7.525 8.13-9.772 11.462-1.141 1.69-1.913 3.118-2.26 4.175-.137.417-.198.745-.195.961l.11.003z" fill="#FDBD39" fill-rule="nonzero"/><path d="M60.743 79.498l4.473 1.195a3.401 3.401 0 0 1 2.415 4.166l-.546 2.031c-.792 2.936-3.822 4.678-6.77 3.891l-.393-.103a5.525 5.525 0 0 1-3.358-2.565 5.486 5.486 0 0 1-.553-4.178l.547-2.031a3.404 3.404 0 0 1 1.592-2.066 3.429 3.429 0 0 1 2.593-.34z" fill="#F8CAB6" fill-rule="nonzero"/><path d="M47.416 69.593c-1.028 4.141 1.909 5.909 10.016 5.053a1.58 1.58 0 0 0 1.369-1.732 1.584 1.584 0 0 0-1.703-1.407c-3.63.383-5.747.215-6.547-.267-.201-.122-.222-.228-.06-.888a1.586 1.586 0 0 0-3.075-.759zm28.67 4.55c-1.478 1.607-1.114 4.06.941 5.62 2.077 1.578 5.728 2.297 10.937 2.007a1.581 1.581 0 0 0 1.479-1.664 1.583 1.583 0 0 0-1.657-1.489c-4.527.252-7.474-.33-8.839-1.366-.637-.483-.683-.801-.526-.975a1.576 1.576 0 0 0-.162-2.158 1.592 1.592 0 0 0-2.173.026v-.001z" fill="#553D3A" fill-rule="nonzero"/><path d="M56.028 101.117c.19 0 .414-.002.718-.009l.878-.019c2.853-.06 4.894-.028 7.036.188 2.717.277 4.844.826 6.168 1.645a2.12 2.12 0 0 0 2.837-.725 2.1 2.1 0 0 0-.612-2.853c-1.981-1.225-4.667-1.92-7.965-2.254-2.358-.238-4.54-.274-7.555-.21l-.871.02c-.278.004-.478.008-.634.008a2.109 2.109 0 0 0-2.113 2.104c0 1.162.946 2.105 2.113 2.105z" fill-opacity=".7" fill="#FF455B" fill-rule="nonzero"/><path d="M114.822 81.263l.786.279a6.811 6.811 0 0 1 3.882 3.508 6.768 6.768 0 0 1 .235 5.216 6.794 6.794 0 0 1-3.55 3.838 6.837 6.837 0 0 1-5.238.19l-7.217-2.69 2.417-6.345c1.319-3.466 5.18-5.243 8.685-3.998v.002z" fill="#F9DBCE" fill-rule="nonzero"/></g><path d="M245.093 169.54c1.56-10.223 1.207-10.849-1.834-18.39-.848-2.107-3.84-5.894-5.89-5.022-2.05.872-2.89 2.042-2.04 4.148 1.498 3.72 2.687 5.473 3.146 7.712.366 1.792-.364 2.678-1.106 6.052-.168.753.231 4.559.409 5.473.318 1.647 1.192 3.208 2.603 3.436 2.191.352 4.369-1.157 4.71-3.41h.002z" fill="#F9DBCE" fill-rule="nonzero"/><path d="M238.365 163.518c1.254-4.012 7.95-4.212 14.41-5.537 6.461-1.326 9.611-10.56 15.896-10.97 6.286-.41 8.247 10.169 4.256 16.507-3.993 6.338-12.233 16.93-23.246 16.467-11.013-.463-12.57-12.455-11.316-16.467zM106.712 133.322c-.333-.017-.154 0-1.712-.14-1.671-.15-2.794-.208-4.047-.171-2.732.082-5.076.657-7.062 2.049l-.496.34c-.373.253-2.165 1.426-2.67 1.77-4.641 3.14-7.344 6.071-8.607 10.653-.535 2.206.801 4.432 3.019 5.028 2.217.597 4.513-.653 5.186-2.822.614-2.228 2.078-3.816 5.209-5.934.438-.297 2.227-1.47 2.669-1.768.215-.145.416-.284.61-.42.389-.272 1.188-.467 2.397-.504.827-.024 1.674.022 3.028.142l1.025.09c.403.034.728.059 1.036.074 1.033.05 1.814.013 2.666-.234 2.173-.641 3.454-2.851 2.913-5.025-.54-2.173-2.714-3.546-4.94-3.12-.056 0-.132-.003-.224-.008z" fill="#F9DBCE" fill-rule="nonzero"/><path d="M79.163 156.775c2.128-8.202 3.913-12.583 7.408-14.505 3.496-1.92 20.904 6.537 15.341 21.136-5.565 14.6-24.876 1.57-22.75-6.63z" fill="#F9DBCE" fill-rule="nonzero"/><circle fill-opacity=".09" fill="#00125F" cx="137.5" cy="32.5" r="32.5"/><ellipse fill-opacity=".09" fill="#00125F" cx="261" cy="92.5" rx="25" ry="36.5"/><ellipse fill-opacity=".09" fill="#00125F" cx="26" cy="104" rx="26" ry="35"/><path d="M128 18.607a17.18 17.18 0 0 1 1.978-1.404c.712-.436 1.478-.819 2.297-1.15.82-.33 1.7-.589 2.641-.775a15.827 15.827 0 0 1 3.06-.278c1.54 0 2.927.202 4.164.605 1.237.404 2.29.98 3.157 1.731a7.594 7.594 0 0 1 2.003 2.712c.467 1.057.7 2.231.7 3.522 0 1.243-.172 2.308-.516 3.196a8.68 8.68 0 0 1-1.314 2.324 9.893 9.893 0 0 1-1.745 1.707c-.63.476-1.228.924-1.794 1.344a14.96 14.96 0 0 0-1.474 1.234c-.417.404-.675.856-.774 1.356l-.688 3.39h-5.209l-.54-3.898a3.52 3.52 0 0 1-.05-.581c0-.71.173-1.332.517-1.865a6.646 6.646 0 0 1 1.302-1.464c.524-.444 1.09-.872 1.695-1.283a15.3 15.3 0 0 0 1.696-1.332 6.75 6.75 0 0 0 1.302-1.598c.344-.589.516-1.287.516-2.094 0-.968-.324-1.739-.97-2.312-.648-.573-1.536-.86-2.667-.86-.868 0-1.592.09-2.174.267a8.838 8.838 0 0 0-1.499.593 33.55 33.55 0 0 0-1.093.593 1.87 1.87 0 0 1-.934.266c-.704 0-1.228-.298-1.572-.895L128 18.608zm4.52 28.253c0-.58.111-1.122.333-1.622.22-.5.524-.936.909-1.307.385-.371.84-.666 1.363-.884a4.437 4.437 0 0 1 1.72-.327c.606 0 1.171.11 1.696.327.524.218.982.513 1.375.884a3.967 3.967 0 0 1 1.253 2.93c0 .58-.11 1.125-.331 1.633a3.973 3.973 0 0 1-.922 1.32 4.32 4.32 0 0 1-1.375.871 4.52 4.52 0 0 1-1.696.315 4.587 4.587 0 0 1-1.72-.315c-.524-.21-.978-.5-1.363-.871a4.063 4.063 0 0 1-.91-1.32 4.052 4.052 0 0 1-.331-1.634zM19.266 90.607c.675-.5 1.394-.968 2.154-1.404.76-.436 1.558-.819 2.394-1.15.835-.33 1.712-.589 2.63-.775A14.63 14.63 0 0 1 29.348 87c1.431 0 2.676.202 3.735.605 1.059.404 1.907.98 2.546 1.731.638.75 1.055 1.655 1.251 2.712.197 1.057.15 2.231-.14 3.522-.28 1.243-.68 2.308-1.199 3.196-.52.888-1.1 1.662-1.744 2.324a13.347 13.347 0 0 1-2.006 1.707c-.693.476-1.35.924-1.969 1.344-.62.42-1.169.83-1.648 1.234-.479.404-.82.856-1.024 1.356l-1.402 3.39h-4.841l.373-3.898a3.76 3.76 0 0 1 .085-.581c.16-.71.46-1.332.9-1.865.439-.532.952-1.02 1.539-1.464a26.021 26.021 0 0 1 1.864-1.283 19.982 19.982 0 0 0 1.876-1.332 9.297 9.297 0 0 0 1.57-1.598c.451-.589.768-1.287.95-2.094.217-.968.09-1.739-.383-2.312-.472-.573-1.234-.86-2.284-.86-.807 0-1.5.09-2.081.267a9.98 9.98 0 0 0-1.527.593c-.437.218-.82.416-1.15.593-.329.178-.638.266-.927.266-.655 0-1.075-.298-1.26-.895l-1.187-3.05zm-2.15 28.253c.13-.58.354-1.122.672-1.622.318-.5.698-.936 1.14-1.307a5.45 5.45 0 0 1 1.466-.884 4.401 4.401 0 0 1 1.672-.327c.563 0 1.064.11 1.502.327.438.218.798.513 1.08.884.282.371.47.807.563 1.307.093.5.074 1.041-.057 1.622a5.183 5.183 0 0 1-.675 1.634c-.32.509-.704.948-1.153 1.32-.45.37-.94.661-1.475.871a4.468 4.468 0 0 1-1.647.315c-.578 0-1.088-.105-1.528-.315a2.81 2.81 0 0 1-1.071-.871 3.108 3.108 0 0 1-.549-1.32 4.104 4.104 0 0 1 .06-1.634zM249 80.607c.464-.5.981-.968 1.552-1.404a10.94 10.94 0 0 1 1.881-1.15c.684-.33 1.435-.589 2.253-.775a12.263 12.263 0 0 1 2.71-.278c1.388 0 2.672.202 3.852.605a9.83 9.83 0 0 1 3.128 1.731 9.578 9.578 0 0 1 2.248 2.712c.593 1.057.996 2.231 1.207 3.522.204 1.243.223 2.308.059 3.196-.165.888-.433 1.662-.804 2.324a7.419 7.419 0 0 1-1.292 1.707c-.49.476-.956.924-1.396 1.344-.44.42-.816.83-1.126 1.234a2.22 2.22 0 0 0-.476 1.356l-.065 3.39h-4.692l-1.126-3.898a4.264 4.264 0 0 1-.139-.581c-.116-.71-.063-1.332.16-1.865.222-.532.534-1.02.933-1.464.4-.444.839-.872 1.317-1.283.48-.412.916-.856 1.31-1.332a5.335 5.335 0 0 0 .911-1.598c.214-.589.255-1.287.122-2.094-.158-.968-.576-1.739-1.252-2.312-.677-.573-1.525-.86-2.543-.86-.782 0-1.42.09-1.915.267a6.248 6.248 0 0 0-1.254.593c-.34.218-.636.416-.887.593a1.36 1.36 0 0 1-.798.266c-.635 0-1.156-.298-1.563-.895L249 80.608zm8.699 28.253a4.134 4.134 0 0 1 .033-1.622c.117-.5.319-.936.605-1.307a3.086 3.086 0 0 1 1.084-.884c.436-.218.935-.327 1.496-.327a3.97 3.97 0 0 1 1.58.327 5.049 5.049 0 0 1 2.43 2.191 4.9 4.9 0 0 1 .564 1.622 4.227 4.227 0 0 1-.032 1.634c-.116.509-.32.948-.614 1.32a3.066 3.066 0 0 1-1.097.871c-.438.21-.93.315-1.476.315-.56 0-1.094-.105-1.6-.315-.507-.21-.964-.5-1.372-.871a5.153 5.153 0 0 1-1.035-1.32 5.003 5.003 0 0 1-.566-1.634z" fill-opacity=".9" fill="#FFF"/></g></svg>