<?xml version="1.0" encoding="UTF-8"?>
<svg width="158px" height="63px" viewBox="0 0 158 63" version="1.1" xmlns="http://www.w3.org/2000/svg"
     xmlns:xlink="http://www.w3.org/1999/xlink">
    <title>FAQ</title>
    <desc>FAQ</desc>
    <defs></defs>
    <g id="querycon-questions-section" stroke="none" stroke-width="1" fill="none" fill-rule="evenodd"
       transform="translate(-384.000000, -9364.000000)">
        <g id="Group-41" transform="translate(305.000000, 8966.000000)" fill="#202020">
            <g id="Group-36" transform="translate(0.000000, 276.000000)">
                <g id="view-github-project">
                    <path d="M112.768,122.576 L112.768,131.936 L91.24,131.936 L91.24,145.22 L109.168,145.22 L109.168,154.616 L91.24,154.616 L91.24,175.028 L79,175.028 L79,122.576 L112.768,122.576 Z M172.16,175.028 L162.728,175.028 C161.671995,175.028 160.802003,174.782002 160.118,174.29 C159.433997,173.797998 158.960001,173.168004 158.696,172.4 L155.6,163.256 L135.656,163.256 L132.56,172.4 C132.319999,173.072003 131.852003,173.677997 131.156,174.218 C130.459997,174.758003 129.608005,175.028 128.6,175.028 L119.096,175.028 L139.4,122.576 L151.856,122.576 L172.16,175.028 Z M138.464,154.976 L152.792,154.976 L147.968,140.612 C147.655998,139.699995 147.290002,138.626006 146.87,137.39 C146.449998,136.153994 146.036002,134.816007 145.628,133.376 C145.243998,134.840007 144.848002,136.195994 144.44,137.444 C144.031998,138.692006 143.648002,139.771995 143.288,140.684 L138.464,154.976 Z M233.176,148.784 C233.176,151.040011 232.942002,153.20599 232.474,155.282 C232.005998,157.35801 231.334004,159.307991 230.458,161.132 C229.581996,162.956009 228.502006,164.647992 227.218,166.208 C225.933994,167.768008 224.476008,169.147994 222.844,170.348 L236.128,184.856 L226.12,184.856 C224.679993,184.856 223.372006,184.682002 222.196,184.334 C221.019994,183.985998 219.976005,183.284005 219.064,182.228 L212.548,174.92 C211.491995,175.136001 210.418005,175.303999 209.326,175.424 C208.233995,175.544001 207.112006,175.604 205.96,175.604 C201.87998,175.604 198.160017,174.920007 194.8,173.552 C191.439983,172.183993 188.566012,170.294012 186.178,167.882 C183.789988,165.469988 181.942007,162.632016 180.634,159.368 C179.325993,156.103984 178.672,152.576019 178.672,148.784 C178.672,144.991981 179.325993,141.464016 180.634,138.2 C181.942007,134.935984 183.789988,132.104012 186.178,129.704 C188.566012,127.303988 191.439983,125.420007 194.8,124.052 C198.160017,122.683993 201.87998,122 205.96,122 C210.04002,122 213.753983,122.689993 217.102,124.07 C220.450017,125.450007 223.311988,127.339988 225.688,129.74 C228.064012,132.140012 229.905993,134.971984 231.214,138.236 C232.522007,141.500016 233.176,145.015981 233.176,148.784 Z M220.72,148.784 C220.72,146.191987 220.384003,143.85801 219.712,141.782 C219.039997,139.70599 218.074006,137.948007 216.814,136.508 C215.553994,135.067993 214.012009,133.964004 212.188,133.196 C210.363991,132.427996 208.288012,132.044 205.96,132.044 C203.607988,132.044 201.514009,132.427996 199.678,133.196 C197.841991,133.964004 196.294006,135.067993 195.034,136.508 C193.773994,137.948007 192.808003,139.70599 192.136,141.782 C191.463997,143.85801 191.128,146.191987 191.128,148.784 C191.128,151.400013 191.463997,153.74599 192.136,155.822 C192.808003,157.89801 193.773994,159.655993 195.034,161.096 C196.294006,162.536007 197.841991,163.633996 199.678,164.39 C201.514009,165.146004 203.607988,165.524 205.96,165.524 C208.288012,165.524 210.363991,165.146004 212.188,164.39 C214.012009,163.633996 215.553994,162.536007 216.814,161.096 C218.074006,159.655993 219.039997,157.89801 219.712,155.822 C220.384003,153.74599 220.72,151.400013 220.72,148.784 Z"
                          id="FAQ"></path>
                </g>
            </g>
        </g>
    </g>
</svg>
