<?xml version="1.0" encoding="UTF-8"?>
<svg width="24px" height="24px" viewBox="0 0 24 24" version="1.1" xmlns="http://www.w3.org/2000/svg" xmlns:xlink="http://www.w3.org/1999/xlink">
    <!-- Generator: Sketch 48.2 (47327) - http://www.bohemiancoding.com/sketch -->
    <title>Combined Shape</title>
    <desc>Created with Sketch.</desc>
    <defs></defs>
    <g id="querycon-updated-header-copy" stroke="none" stroke-width="1" fill="none" fill-rule="evenodd" transform="translate(-387.000000, -1579.000000)" fill-opacity="0.3">
        <g id="sponsorship-banner" transform="translate(0.000000, 1553.000000)" fill="#FFFFFF">
            <g id="kolide-pattern" transform="translate(12.000000, 0.000000)">
                <path d="M386.360876,26.4360004 C386.737128,26.059748 387.285598,25.9132874 387.799221,26.0506574 L393.897538,27.6849561 C394.410656,27.822326 394.81216,28.2238302 394.950035,28.7374525 L398.94942,43.6612862 C399.08679,44.1749085 398.939825,44.7228733 398.563572,45.0996306 L394.099553,49.5631447 C393.723301,49.9399021 393.174831,50.0863627 392.661209,49.9489928 L377.737375,45.9501124 C377.223753,45.8122374 376.822248,45.4107332 376.684373,44.897616 L375.05058,38.7987931 C374.91321,38.2851708 375.060175,37.736701 375.436428,37.3609537 L386.360876,26.4360004 Z M387.594378,40.6717216 L390.605911,45.5241139 L394.508835,45.5241139 L390.93166,39.6944756 L390.941761,39.6944756 L394.508835,33.8572618 L390.605911,33.8572618 L387.961034,38.0349251 L387.192368,38.0349251 L387.185803,33.8572618 L381.665247,33.8572618 L381.666762,35.1249038 L383.8364,36.2814378 L383.849026,45.5241139 L387.202469,45.5241139 L387.196409,41.6201805 L385.415649,40.6727317 L387.594378,40.6717216 Z" id="Combined-Shape"></path>
            </g>
        </g>
    </g>
</svg>