<?xml version="1.0" encoding="UTF-8"?>
<svg width="399px" height="74px" viewBox="0 0 399 74" version="1.1" xmlns="http://www.w3.org/2000/svg" xmlns:xlink="http://www.w3.org/1999/xlink">
    <!-- Generator: Sketch 48.2 (47327) - http://www.bohemiancoding.com/sketch -->
    <title>kolide-pattern</title>
    <desc>Created with Sketch.</desc>
    <defs></defs>
    <g id="querycon18-copy-5" stroke="none" stroke-width="1" fill="none" fill-rule="evenodd" transform="translate(-12.000000, -1553.000000)" fill-opacity="0.3">
        <g id="sponsorship-banner" transform="translate(0.000000, 1553.000000)" fill="#FFFFFF">
            <g id="kolide-pattern" transform="translate(12.000000, 0.000000)">
                <path d="M386.360876,26.4360004 C386.737128,26.059748 387.285598,25.9132874 387.799221,26.0506574 L393.897538,27.6849561 C394.410656,27.822326 394.81216,28.2238302 394.950035,28.7374525 L398.94942,43.6612862 C399.08679,44.1749085 398.939825,44.7228733 398.563572,45.0996306 L394.099553,49.5631447 C393.723301,49.9399021 393.174831,50.0863627 392.661209,49.9489928 L377.737375,45.9501124 C377.223753,45.8122374 376.822248,45.4107332 376.684373,44.897616 L375.05058,38.7987931 C374.91321,38.2851708 375.060175,37.736701 375.436428,37.3609537 L386.360876,26.4360004 Z M387.594378,40.6717216 L390.605911,45.5241139 L394.508835,45.5241139 L390.93166,39.6944756 L390.941761,39.6944756 L394.508835,33.8572618 L390.605911,33.8572618 L387.961034,38.0349251 L387.192368,38.0349251 L387.185803,33.8572618 L381.665247,33.8572618 L381.666762,35.1249038 L383.8364,36.2814378 L383.849026,45.5241139 L387.202469,45.5241139 L387.196409,41.6201805 L385.415649,40.6727317 L387.594378,40.6717216 Z" id="Combined-Shape"></path>
                <path d="M336.360876,26.4360004 C336.737128,26.059748 337.285598,25.9132874 337.799221,26.0506574 L343.897538,27.6849561 C344.410656,27.822326 344.81216,28.2238302 344.950035,28.7374525 L348.94942,43.6612862 C349.08679,44.1749085 348.939825,44.7228733 348.563572,45.0996306 L344.099553,49.5631447 C343.723301,49.9399021 343.174831,50.0863627 342.661209,49.9489928 L327.737375,45.9501124 C327.223753,45.8122374 326.822248,45.4107332 326.684373,44.897616 L325.05058,38.7987931 C324.91321,38.2851708 325.060175,37.736701 325.436428,37.3609537 L336.360876,26.4360004 Z M337.594378,40.6717216 L340.605911,45.5241139 L344.508835,45.5241139 L340.93166,39.6944756 L340.941761,39.6944756 L344.508835,33.8572618 L340.605911,33.8572618 L337.961034,38.0349251 L337.192368,38.0349251 L337.185803,33.8572618 L331.665247,33.8572618 L331.666762,35.1249038 L333.8364,36.2814378 L333.849026,45.5241139 L337.202469,45.5241139 L337.196409,41.6201805 L335.415649,40.6727317 L337.594378,40.6717216 Z" id="Combined-Shape"></path>
                <path d="M286.360876,26.4360004 C286.737128,26.059748 287.285598,25.9132874 287.799221,26.0506574 L293.897538,27.6849561 C294.410656,27.822326 294.81216,28.2238302 294.950035,28.7374525 L298.94942,43.6612862 C299.08679,44.1749085 298.939825,44.7228733 298.563572,45.0996306 L294.099553,49.5631447 C293.723301,49.9399021 293.174831,50.0863627 292.661209,49.9489928 L277.737375,45.9501124 C277.223753,45.8122374 276.822248,45.4107332 276.684373,44.897616 L275.05058,38.7987931 C274.91321,38.2851708 275.060175,37.736701 275.436428,37.3609537 L286.360876,26.4360004 Z M287.594378,40.6717216 L290.605911,45.5241139 L294.508835,45.5241139 L290.93166,39.6944756 L290.941761,39.6944756 L294.508835,33.8572618 L290.605911,33.8572618 L287.961034,38.0349251 L287.192368,38.0349251 L287.185803,33.8572618 L281.665247,33.8572618 L281.666762,35.1249038 L283.8364,36.2814378 L283.849026,45.5241139 L287.202469,45.5241139 L287.196409,41.6201805 L285.415649,40.6727317 L287.594378,40.6717216 Z" id="Combined-Shape"></path>
                <path d="M236.360876,26.4360004 C236.737128,26.059748 237.285598,25.9132874 237.799221,26.0506574 L243.897538,27.6849561 C244.410656,27.822326 244.81216,28.2238302 244.950035,28.7374525 L248.94942,43.6612862 C249.08679,44.1749085 248.939825,44.7228733 248.563572,45.0996306 L244.099553,49.5631447 C243.723301,49.9399021 243.174831,50.0863627 242.661209,49.9489928 L227.737375,45.9501124 C227.223753,45.8122374 226.822248,45.4107332 226.684373,44.897616 L225.05058,38.7987931 C224.91321,38.2851708 225.060175,37.736701 225.436428,37.3609537 L236.360876,26.4360004 Z M237.594378,40.6717216 L240.605911,45.5241139 L244.508835,45.5241139 L240.93166,39.6944756 L240.941761,39.6944756 L244.508835,33.8572618 L240.605911,33.8572618 L237.961034,38.0349251 L237.192368,38.0349251 L237.185803,33.8572618 L231.665247,33.8572618 L231.666762,35.1249038 L233.8364,36.2814378 L233.849026,45.5241139 L237.202469,45.5241139 L237.196409,41.6201805 L235.415649,40.6727317 L237.594378,40.6717216 Z" id="Combined-Shape"></path>
                <path d="M186.360876,26.4360004 C186.737128,26.059748 187.285598,25.9132874 187.799221,26.0506574 L193.897538,27.6849561 C194.410656,27.822326 194.81216,28.2238302 194.950035,28.7374525 L198.94942,43.6612862 C199.08679,44.1749085 198.939825,44.7228733 198.563572,45.0996306 L194.099553,49.5631447 C193.723301,49.9399021 193.174831,50.0863627 192.661209,49.9489928 L177.737375,45.9501124 C177.223753,45.8122374 176.822248,45.4107332 176.684373,44.897616 L175.05058,38.7987931 C174.91321,38.2851708 175.060175,37.736701 175.436428,37.3609537 L186.360876,26.4360004 Z M187.594378,40.6717216 L190.605911,45.5241139 L194.508835,45.5241139 L190.93166,39.6944756 L190.941761,39.6944756 L194.508835,33.8572618 L190.605911,33.8572618 L187.961034,38.0349251 L187.192368,38.0349251 L187.185803,33.8572618 L181.665247,33.8572618 L181.666762,35.1249038 L183.8364,36.2814378 L183.849026,45.5241139 L187.202469,45.5241139 L187.196409,41.6201805 L185.415649,40.6727317 L187.594378,40.6717216 Z" id="Combined-Shape"></path>
                <path d="M136.360876,26.4360004 C136.737128,26.059748 137.285598,25.9132874 137.799221,26.0506574 L143.897538,27.6849561 C144.410656,27.822326 144.81216,28.2238302 144.950035,28.7374525 L148.94942,43.6612862 C149.08679,44.1749085 148.939825,44.7228733 148.563572,45.0996306 L144.099553,49.5631447 C143.723301,49.9399021 143.174831,50.0863627 142.661209,49.9489928 L127.737375,45.9501124 C127.223753,45.8122374 126.822248,45.4107332 126.684373,44.897616 L125.05058,38.7987931 C124.91321,38.2851708 125.060175,37.736701 125.436428,37.3609537 L136.360876,26.4360004 Z M137.594378,40.6717216 L140.605911,45.5241139 L144.508835,45.5241139 L140.93166,39.6944756 L140.941761,39.6944756 L144.508835,33.8572618 L140.605911,33.8572618 L137.961034,38.0349251 L137.192368,38.0349251 L137.185803,33.8572618 L131.665247,33.8572618 L131.666762,35.1249038 L133.8364,36.2814378 L133.849026,45.5241139 L137.202469,45.5241139 L137.196409,41.6201805 L135.415649,40.6727317 L137.594378,40.6717216 Z" id="Combined-Shape"></path>
                <path d="M86.3608761,26.4360004 C86.7371284,26.059748 87.2855982,25.9132874 87.7992205,26.0506574 L93.8975384,27.6849561 C94.4106556,27.822326 94.8121598,28.2238302 94.9500348,28.7374525 L98.9494202,43.6612862 C99.0867902,44.1749085 98.9398245,44.7228733 98.5635722,45.0996306 L94.099553,49.5631447 C93.7233007,49.9399021 93.1748309,50.0863627 92.6612086,49.9489928 L77.7373749,45.9501124 C77.2237526,45.8122374 76.8222484,45.4107332 76.6843734,44.897616 L75.0505798,38.7987931 C74.9132098,38.2851708 75.0601755,37.736701 75.4364278,37.3609537 L86.3608761,26.4360004 Z M87.5943777,40.6717216 L90.6059113,45.5241139 L94.5088348,45.5241139 L90.93166,39.6944756 L90.9417607,39.6944756 L94.5088348,33.8572618 L90.6059113,33.8572618 L87.9610343,38.0349251 L87.1923685,38.0349251 L87.185803,33.8572618 L81.6652471,33.8572618 L81.6667622,35.1249038 L83.8363998,36.2814378 L83.8490257,45.5241139 L87.2024692,45.5241139 L87.1964088,41.6201805 L85.4156495,40.6727317 L87.5943777,40.6717216 Z" id="Combined-Shape"></path>
                <path d="M36.3608761,26.4360004 C36.7371284,26.059748 37.2855982,25.9132874 37.7992205,26.0506574 L43.8975384,27.6849561 C44.4106556,27.822326 44.8121598,28.2238302 44.9500348,28.7374525 L48.9494202,43.6612862 C49.0867902,44.1749085 48.9398245,44.7228733 48.5635722,45.0996306 L44.099553,49.5631447 C43.7233007,49.9399021 43.1748309,50.0863627 42.6612086,49.9489928 L27.7373749,45.9501124 C27.2237526,45.8122374 26.8222484,45.4107332 26.6843734,44.897616 L25.0505798,38.7987931 C24.9132098,38.2851708 25.0601755,37.736701 25.4364278,37.3609537 L36.3608761,26.4360004 Z M37.5943777,40.6717216 L40.6059113,45.5241139 L44.5088348,45.5241139 L40.93166,39.6944756 L40.9417607,39.6944756 L44.5088348,33.8572618 L40.6059113,33.8572618 L37.9610343,38.0349251 L37.1923685,38.0349251 L37.185803,33.8572618 L31.6652471,33.8572618 L31.6667622,35.1249038 L33.8363998,36.2814378 L33.8490257,45.5241139 L37.2024692,45.5241139 L37.1964088,41.6201805 L35.4156495,40.6727317 L37.5943777,40.6717216 Z" id="Combined-Shape"></path>
                <path d="M361.360876,0.436000366 C361.737128,0.059748044 362.285598,-0.0867125912 362.799221,0.0506573839 L368.897538,1.68495606 C369.410656,1.82232603 369.81216,2.22383019 369.950035,2.73745249 L373.94942,17.6612862 C374.08679,18.1749085 373.939825,18.7228733 373.563572,19.0996306 L369.099553,23.5631447 C368.723301,23.9399021 368.174831,24.0863627 367.661209,23.9489928 L352.737375,19.9501124 C352.223753,19.8122374 351.822248,19.4107332 351.684373,18.897616 L350.05058,12.7987931 C349.91321,12.2851708 350.060175,11.736701 350.436428,11.3609537 L361.360876,0.436000366 Z M362.594378,14.6717216 L365.605911,19.5241139 L369.508835,19.5241139 L365.93166,13.6944756 L365.941761,13.6944756 L369.508835,7.85726176 L365.605911,7.85726176 L362.961034,12.0349251 L362.192368,12.0349251 L362.185803,7.85726176 L356.665247,7.85726176 L356.666762,9.12490381 L358.8364,10.2814378 L358.849026,19.5241139 L362.202469,19.5241139 L362.196409,15.6201805 L360.415649,14.6727317 L362.594378,14.6717216 Z" id="Combined-Shape"></path>
                <path d="M311.360876,0.436000366 C311.737128,0.059748044 312.285598,-0.0867125912 312.799221,0.0506573839 L318.897538,1.68495606 C319.410656,1.82232603 319.81216,2.22383019 319.950035,2.73745249 L323.94942,17.6612862 C324.08679,18.1749085 323.939825,18.7228733 323.563572,19.0996306 L319.099553,23.5631447 C318.723301,23.9399021 318.174831,24.0863627 317.661209,23.9489928 L302.737375,19.9501124 C302.223753,19.8122374 301.822248,19.4107332 301.684373,18.897616 L300.05058,12.7987931 C299.91321,12.2851708 300.060175,11.736701 300.436428,11.3609537 L311.360876,0.436000366 Z M312.594378,14.6717216 L315.605911,19.5241139 L319.508835,19.5241139 L315.93166,13.6944756 L315.941761,13.6944756 L319.508835,7.85726176 L315.605911,7.85726176 L312.961034,12.0349251 L312.192368,12.0349251 L312.185803,7.85726176 L306.665247,7.85726176 L306.666762,9.12490381 L308.8364,10.2814378 L308.849026,19.5241139 L312.202469,19.5241139 L312.196409,15.6201805 L310.415649,14.6727317 L312.594378,14.6717216 Z" id="Combined-Shape"></path>
                <path d="M261.360876,0.436000366 C261.737128,0.059748044 262.285598,-0.0867125912 262.799221,0.0506573839 L268.897538,1.68495606 C269.410656,1.82232603 269.81216,2.22383019 269.950035,2.73745249 L273.94942,17.6612862 C274.08679,18.1749085 273.939825,18.7228733 273.563572,19.0996306 L269.099553,23.5631447 C268.723301,23.9399021 268.174831,24.0863627 267.661209,23.9489928 L252.737375,19.9501124 C252.223753,19.8122374 251.822248,19.4107332 251.684373,18.897616 L250.05058,12.7987931 C249.91321,12.2851708 250.060175,11.736701 250.436428,11.3609537 L261.360876,0.436000366 Z M262.594378,14.6717216 L265.605911,19.5241139 L269.508835,19.5241139 L265.93166,13.6944756 L265.941761,13.6944756 L269.508835,7.85726176 L265.605911,7.85726176 L262.961034,12.0349251 L262.192368,12.0349251 L262.185803,7.85726176 L256.665247,7.85726176 L256.666762,9.12490381 L258.8364,10.2814378 L258.849026,19.5241139 L262.202469,19.5241139 L262.196409,15.6201805 L260.415649,14.6727317 L262.594378,14.6717216 Z" id="Combined-Shape"></path>
                <path d="M211.360876,0.436000366 C211.737128,0.059748044 212.285598,-0.0867125912 212.799221,0.0506573839 L218.897538,1.68495606 C219.410656,1.82232603 219.81216,2.22383019 219.950035,2.73745249 L223.94942,17.6612862 C224.08679,18.1749085 223.939825,18.7228733 223.563572,19.0996306 L219.099553,23.5631447 C218.723301,23.9399021 218.174831,24.0863627 217.661209,23.9489928 L202.737375,19.9501124 C202.223753,19.8122374 201.822248,19.4107332 201.684373,18.897616 L200.05058,12.7987931 C199.91321,12.2851708 200.060175,11.736701 200.436428,11.3609537 L211.360876,0.436000366 Z M212.594378,14.6717216 L215.605911,19.5241139 L219.508835,19.5241139 L215.93166,13.6944756 L215.941761,13.6944756 L219.508835,7.85726176 L215.605911,7.85726176 L212.961034,12.0349251 L212.192368,12.0349251 L212.185803,7.85726176 L206.665247,7.85726176 L206.666762,9.12490381 L208.8364,10.2814378 L208.849026,19.5241139 L212.202469,19.5241139 L212.196409,15.6201805 L210.415649,14.6727317 L212.594378,14.6717216 Z" id="Combined-Shape"></path>
                <path d="M161.360876,0.436000366 C161.737128,0.059748044 162.285598,-0.0867125912 162.799221,0.0506573839 L168.897538,1.68495606 C169.410656,1.82232603 169.81216,2.22383019 169.950035,2.73745249 L173.94942,17.6612862 C174.08679,18.1749085 173.939825,18.7228733 173.563572,19.0996306 L169.099553,23.5631447 C168.723301,23.9399021 168.174831,24.0863627 167.661209,23.9489928 L152.737375,19.9501124 C152.223753,19.8122374 151.822248,19.4107332 151.684373,18.897616 L150.05058,12.7987931 C149.91321,12.2851708 150.060175,11.736701 150.436428,11.3609537 L161.360876,0.436000366 Z M162.594378,14.6717216 L165.605911,19.5241139 L169.508835,19.5241139 L165.93166,13.6944756 L165.941761,13.6944756 L169.508835,7.85726176 L165.605911,7.85726176 L162.961034,12.0349251 L162.192368,12.0349251 L162.185803,7.85726176 L156.665247,7.85726176 L156.666762,9.12490381 L158.8364,10.2814378 L158.849026,19.5241139 L162.202469,19.5241139 L162.196409,15.6201805 L160.415649,14.6727317 L162.594378,14.6717216 Z" id="Combined-Shape"></path>
                <path d="M111.360876,0.436000366 C111.737128,0.059748044 112.285598,-0.0867125912 112.799221,0.0506573839 L118.897538,1.68495606 C119.410656,1.82232603 119.81216,2.22383019 119.950035,2.73745249 L123.94942,17.6612862 C124.08679,18.1749085 123.939825,18.7228733 123.563572,19.0996306 L119.099553,23.5631447 C118.723301,23.9399021 118.174831,24.0863627 117.661209,23.9489928 L102.737375,19.9501124 C102.223753,19.8122374 101.822248,19.4107332 101.684373,18.897616 L100.05058,12.7987931 C99.9132098,12.2851708 100.060175,11.736701 100.436428,11.3609537 L111.360876,0.436000366 Z M112.594378,14.6717216 L115.605911,19.5241139 L119.508835,19.5241139 L115.93166,13.6944756 L115.941761,13.6944756 L119.508835,7.85726176 L115.605911,7.85726176 L112.961034,12.0349251 L112.192368,12.0349251 L112.185803,7.85726176 L106.665247,7.85726176 L106.666762,9.12490381 L108.8364,10.2814378 L108.849026,19.5241139 L112.202469,19.5241139 L112.196409,15.6201805 L110.415649,14.6727317 L112.594378,14.6717216 Z" id="Combined-Shape"></path>
                <path d="M61.3608761,0.436000366 C61.7371284,0.059748044 62.2855982,-0.0867125912 62.7992205,0.0506573839 L68.8975384,1.68495606 C69.4106556,1.82232603 69.8121598,2.22383019 69.9500348,2.73745249 L73.9494202,17.6612862 C74.0867902,18.1749085 73.9398245,18.7228733 73.5635722,19.0996306 L69.099553,23.5631447 C68.7233007,23.9399021 68.1748309,24.0863627 67.6612086,23.9489928 L52.7373749,19.9501124 C52.2237526,19.8122374 51.8222484,19.4107332 51.6843734,18.897616 L50.0505798,12.7987931 C49.9132098,12.2851708 50.0601755,11.736701 50.4364278,11.3609537 L61.3608761,0.436000366 Z M62.5943777,14.6717216 L65.6059113,19.5241139 L69.5088348,19.5241139 L65.93166,13.6944756 L65.9417607,13.6944756 L69.5088348,7.85726176 L65.6059113,7.85726176 L62.9610343,12.0349251 L62.1923685,12.0349251 L62.185803,7.85726176 L56.6652471,7.85726176 L56.6667622,9.12490381 L58.8363998,10.2814378 L58.8490257,19.5241139 L62.2024692,19.5241139 L62.1964088,15.6201805 L60.4156495,14.6727317 L62.5943777,14.6717216 Z" id="Combined-Shape"></path>
                <path d="M361.360876,50.4360004 C361.737128,50.059748 362.285598,49.9132874 362.799221,50.0506574 L368.897538,51.6849561 C369.410656,51.822326 369.81216,52.2238302 369.950035,52.7374525 L373.94942,67.6612862 C374.08679,68.1749085 373.939825,68.7228733 373.563572,69.0996306 L369.099553,73.5631447 C368.723301,73.9399021 368.174831,74.0863627 367.661209,73.9489928 L352.737375,69.9501124 C352.223753,69.8122374 351.822248,69.4107332 351.684373,68.897616 L350.05058,62.7987931 C349.91321,62.2851708 350.060175,61.736701 350.436428,61.3609537 L361.360876,50.4360004 Z M362.594378,64.6717216 L365.605911,69.5241139 L369.508835,69.5241139 L365.93166,63.6944756 L365.941761,63.6944756 L369.508835,57.8572618 L365.605911,57.8572618 L362.961034,62.0349251 L362.192368,62.0349251 L362.185803,57.8572618 L356.665247,57.8572618 L356.666762,59.1249038 L358.8364,60.2814378 L358.849026,69.5241139 L362.202469,69.5241139 L362.196409,65.6201805 L360.415649,64.6727317 L362.594378,64.6717216 Z" id="Combined-Shape"></path>
                <path d="M311.360876,50.4360004 C311.737128,50.059748 312.285598,49.9132874 312.799221,50.0506574 L318.897538,51.6849561 C319.410656,51.822326 319.81216,52.2238302 319.950035,52.7374525 L323.94942,67.6612862 C324.08679,68.1749085 323.939825,68.7228733 323.563572,69.0996306 L319.099553,73.5631447 C318.723301,73.9399021 318.174831,74.0863627 317.661209,73.9489928 L302.737375,69.9501124 C302.223753,69.8122374 301.822248,69.4107332 301.684373,68.897616 L300.05058,62.7987931 C299.91321,62.2851708 300.060175,61.736701 300.436428,61.3609537 L311.360876,50.4360004 Z M312.594378,64.6717216 L315.605911,69.5241139 L319.508835,69.5241139 L315.93166,63.6944756 L315.941761,63.6944756 L319.508835,57.8572618 L315.605911,57.8572618 L312.961034,62.0349251 L312.192368,62.0349251 L312.185803,57.8572618 L306.665247,57.8572618 L306.666762,59.1249038 L308.8364,60.2814378 L308.849026,69.5241139 L312.202469,69.5241139 L312.196409,65.6201805 L310.415649,64.6727317 L312.594378,64.6717216 Z" id="Combined-Shape"></path>
                <path d="M261.360876,50.4360004 C261.737128,50.059748 262.285598,49.9132874 262.799221,50.0506574 L268.897538,51.6849561 C269.410656,51.822326 269.81216,52.2238302 269.950035,52.7374525 L273.94942,67.6612862 C274.08679,68.1749085 273.939825,68.7228733 273.563572,69.0996306 L269.099553,73.5631447 C268.723301,73.9399021 268.174831,74.0863627 267.661209,73.9489928 L252.737375,69.9501124 C252.223753,69.8122374 251.822248,69.4107332 251.684373,68.897616 L250.05058,62.7987931 C249.91321,62.2851708 250.060175,61.736701 250.436428,61.3609537 L261.360876,50.4360004 Z M262.594378,64.6717216 L265.605911,69.5241139 L269.508835,69.5241139 L265.93166,63.6944756 L265.941761,63.6944756 L269.508835,57.8572618 L265.605911,57.8572618 L262.961034,62.0349251 L262.192368,62.0349251 L262.185803,57.8572618 L256.665247,57.8572618 L256.666762,59.1249038 L258.8364,60.2814378 L258.849026,69.5241139 L262.202469,69.5241139 L262.196409,65.6201805 L260.415649,64.6727317 L262.594378,64.6717216 Z" id="Combined-Shape"></path>
                <path d="M211.360876,50.4360004 C211.737128,50.059748 212.285598,49.9132874 212.799221,50.0506574 L218.897538,51.6849561 C219.410656,51.822326 219.81216,52.2238302 219.950035,52.7374525 L223.94942,67.6612862 C224.08679,68.1749085 223.939825,68.7228733 223.563572,69.0996306 L219.099553,73.5631447 C218.723301,73.9399021 218.174831,74.0863627 217.661209,73.9489928 L202.737375,69.9501124 C202.223753,69.8122374 201.822248,69.4107332 201.684373,68.897616 L200.05058,62.7987931 C199.91321,62.2851708 200.060175,61.736701 200.436428,61.3609537 L211.360876,50.4360004 Z M212.594378,64.6717216 L215.605911,69.5241139 L219.508835,69.5241139 L215.93166,63.6944756 L215.941761,63.6944756 L219.508835,57.8572618 L215.605911,57.8572618 L212.961034,62.0349251 L212.192368,62.0349251 L212.185803,57.8572618 L206.665247,57.8572618 L206.666762,59.1249038 L208.8364,60.2814378 L208.849026,69.5241139 L212.202469,69.5241139 L212.196409,65.6201805 L210.415649,64.6727317 L212.594378,64.6717216 Z" id="Combined-Shape"></path>
                <path d="M161.360876,50.4360004 C161.737128,50.059748 162.285598,49.9132874 162.799221,50.0506574 L168.897538,51.6849561 C169.410656,51.822326 169.81216,52.2238302 169.950035,52.7374525 L173.94942,67.6612862 C174.08679,68.1749085 173.939825,68.7228733 173.563572,69.0996306 L169.099553,73.5631447 C168.723301,73.9399021 168.174831,74.0863627 167.661209,73.9489928 L152.737375,69.9501124 C152.223753,69.8122374 151.822248,69.4107332 151.684373,68.897616 L150.05058,62.7987931 C149.91321,62.2851708 150.060175,61.736701 150.436428,61.3609537 L161.360876,50.4360004 Z M162.594378,64.6717216 L165.605911,69.5241139 L169.508835,69.5241139 L165.93166,63.6944756 L165.941761,63.6944756 L169.508835,57.8572618 L165.605911,57.8572618 L162.961034,62.0349251 L162.192368,62.0349251 L162.185803,57.8572618 L156.665247,57.8572618 L156.666762,59.1249038 L158.8364,60.2814378 L158.849026,69.5241139 L162.202469,69.5241139 L162.196409,65.6201805 L160.415649,64.6727317 L162.594378,64.6717216 Z" id="Combined-Shape"></path>
                <path d="M111.360876,50.4360004 C111.737128,50.059748 112.285598,49.9132874 112.799221,50.0506574 L118.897538,51.6849561 C119.410656,51.822326 119.81216,52.2238302 119.950035,52.7374525 L123.94942,67.6612862 C124.08679,68.1749085 123.939825,68.7228733 123.563572,69.0996306 L119.099553,73.5631447 C118.723301,73.9399021 118.174831,74.0863627 117.661209,73.9489928 L102.737375,69.9501124 C102.223753,69.8122374 101.822248,69.4107332 101.684373,68.897616 L100.05058,62.7987931 C99.9132098,62.2851708 100.060175,61.736701 100.436428,61.3609537 L111.360876,50.4360004 Z M112.594378,64.6717216 L115.605911,69.5241139 L119.508835,69.5241139 L115.93166,63.6944756 L115.941761,63.6944756 L119.508835,57.8572618 L115.605911,57.8572618 L112.961034,62.0349251 L112.192368,62.0349251 L112.185803,57.8572618 L106.665247,57.8572618 L106.666762,59.1249038 L108.8364,60.2814378 L108.849026,69.5241139 L112.202469,69.5241139 L112.196409,65.6201805 L110.415649,64.6727317 L112.594378,64.6717216 Z" id="Combined-Shape"></path>
                <path d="M61.3608761,50.4360004 C61.7371284,50.059748 62.2855982,49.9132874 62.7992205,50.0506574 L68.8975384,51.6849561 C69.4106556,51.822326 69.8121598,52.2238302 69.9500348,52.7374525 L73.9494202,67.6612862 C74.0867902,68.1749085 73.9398245,68.7228733 73.5635722,69.0996306 L69.099553,73.5631447 C68.7233007,73.9399021 68.1748309,74.0863627 67.6612086,73.9489928 L52.7373749,69.9501124 C52.2237526,69.8122374 51.8222484,69.4107332 51.6843734,68.897616 L50.0505798,62.7987931 C49.9132098,62.2851708 50.0601755,61.736701 50.4364278,61.3609537 L61.3608761,50.4360004 Z M62.5943777,64.6717216 L65.6059113,69.5241139 L69.5088348,69.5241139 L65.93166,63.6944756 L65.9417607,63.6944756 L69.5088348,57.8572618 L65.6059113,57.8572618 L62.9610343,62.0349251 L62.1923685,62.0349251 L62.185803,57.8572618 L56.6652471,57.8572618 L56.6667622,59.1249038 L58.8363998,60.2814378 L58.8490257,69.5241139 L62.2024692,69.5241139 L62.1964088,65.6201805 L60.4156495,64.6727317 L62.5943777,64.6717216 Z" id="Combined-Shape"></path>
                <path d="M11.3608761,0.436000366 C11.7371284,0.059748044 12.2855982,-0.0867125912 12.7992205,0.0506573839 L18.8975384,1.68495606 C19.4106556,1.82232603 19.8121598,2.22383019 19.9500348,2.73745249 L23.9494202,17.6612862 C24.0867902,18.1749085 23.9398245,18.7228733 23.5635722,19.0996306 L19.099553,23.5631447 C18.7233007,23.9399021 18.1748309,24.0863627 17.6612086,23.9489928 L2.7373749,19.9501124 C2.2237526,19.8122374 1.82224844,19.4107332 1.68437343,18.897616 L0.0505797937,12.7987931 C-0.0867901814,12.2851708 0.0601754905,11.736701 0.436427812,11.3609537 L11.3608761,0.436000366 Z M12.5943777,14.6717216 L15.6059113,19.5241139 L19.5088348,19.5241139 L15.93166,13.6944756 L15.9417607,13.6944756 L19.5088348,7.85726176 L15.6059113,7.85726176 L12.9610343,12.0349251 L12.1923685,12.0349251 L12.185803,7.85726176 L6.66524712,7.85726176 L6.66676223,9.12490381 L8.83639978,10.2814378 L8.84902569,19.5241139 L12.2024692,19.5241139 L12.1964088,15.6201805 L10.4156495,14.6727317 L12.5943777,14.6717216 Z" id="Combined-Shape"></path>
                <path d="M11.3608761,50.4360004 C11.7371284,50.059748 12.2855982,49.9132874 12.7992205,50.0506574 L18.8975384,51.6849561 C19.4106556,51.822326 19.8121598,52.2238302 19.9500348,52.7374525 L23.9494202,67.6612862 C24.0867902,68.1749085 23.9398245,68.7228733 23.5635722,69.0996306 L19.099553,73.5631447 C18.7233007,73.9399021 18.1748309,74.0863627 17.6612086,73.9489928 L2.7373749,69.9501124 C2.2237526,69.8122374 1.82224844,69.4107332 1.68437343,68.897616 L0.0505797937,62.7987931 C-0.0867901814,62.2851708 0.0601754905,61.736701 0.436427812,61.3609537 L11.3608761,50.4360004 Z M12.5943777,64.6717216 L15.6059113,69.5241139 L19.5088348,69.5241139 L15.93166,63.6944756 L15.9417607,63.6944756 L19.5088348,57.8572618 L15.6059113,57.8572618 L12.9610343,62.0349251 L12.1923685,62.0349251 L12.185803,57.8572618 L6.66524712,57.8572618 L6.66676223,59.1249038 L8.83639978,60.2814378 L8.84902569,69.5241139 L12.2024692,69.5241139 L12.1964088,65.6201805 L10.4156495,64.6727317 L12.5943777,64.6717216 Z" id="Combined-Shape"></path>
            </g>
        </g>
    </g>
</svg>