<?xml version="1.0" encoding="UTF-8"?>
<svg width="204px" height="203px" viewBox="0 0 204 203" version="1.1" xmlns="http://www.w3.org/2000/svg" xmlns:xlink="http://www.w3.org/1999/xlink">
    <!-- Generator: Sketch 48.2 (47327) - http://www.bohemiancoding.com/sketch -->
    <title>megaphone</title>
    <desc>Created with Sketch.</desc>
    <defs></defs>
    <g id="querycon-invision-comments" stroke="none" stroke-width="1" fill="none" fill-rule="evenodd" transform="translate(-705.000000, -5065.000000)">
        <g id="call-for-speakers" transform="translate(350.000000, 4968.000000)">
            <g id="megaphone" transform="translate(354.000000, 97.000000)">
                <path d="M60.4416237,62.4087821 L41.3805029,89.4140833 C38.8626421,92.9813231 38.9503264,97.7697411 41.5971002,101.242407 L59.6285862,124.900392 C62.7585291,129.006994 68.5003528,130.055431 72.8796298,127.319987 L109.049045,104.727343 C113.733181,101.801473 115.158537,95.6323445 112.232667,90.9482087 C111.633589,89.9891223 110.876177,89.1385949 109.992654,88.4328124 L74.8528739,60.3621697 C70.5377888,56.9151586 64.2453666,57.6188717 60.7983555,61.9339567 C60.6747701,62.0886651 60.5558071,62.2470101 60.4416237,62.4087821 Z" id="Path-21" fill-opacity="0.2" fill="#3F64ED"></path>
                <path d="M192.172048,84.6360414 C189.788076,86.0296477 186.725743,85.2267977 185.332137,82.8428258 C183.938531,80.4588538 184.741381,77.3965215 187.125353,76.0029151 C189.824731,74.4249309 191.583333,71.3248464 191.583333,67.8389685 C191.583333,62.6761242 187.777667,58.6167463 183.25,58.6167463 C180.488576,58.6167463 178.25,56.3781701 178.25,53.6167463 C178.25,50.8553226 180.488576,48.6167463 183.25,48.6167463 C193.449927,48.6167463 201.583333,57.29238 201.583333,67.8389685 C201.583333,74.8597682 197.955299,81.2553069 192.172048,84.6360414 Z" id="Oval-3" fill="#FF287A" fill-rule="nonzero"></path>
                <path d="M108.956088,115.735009 C106.322311,116.564875 103.514473,115.102517 102.684606,112.468739 C101.85474,109.834962 103.317099,107.027124 105.950876,106.197258 C120.066257,101.749698 131.188656,99.8660529 141.987349,100.69543 C154.739954,101.674874 166.494084,106.568439 177.915287,116.055327 C180.039484,117.819767 180.331126,120.97213 178.566686,123.096327 C176.802246,125.220524 173.649883,125.512165 171.525686,123.747726 C153.213444,108.536876 135.997514,107.214633 108.956088,115.735009 Z" id="Path-6" fill="#3F64ED" fill-rule="nonzero"></path>
                <path d="M20.9853753,88.8903099 C20.3095758,86.2128566 21.9322368,83.4945081 24.6096901,82.8187086 C27.2871434,82.1429091 30.0054919,83.7655701 30.6812914,86.4430234 L42.347958,132.665246 C43.0237576,135.342699 41.4010966,138.061047 38.7236433,138.736847 C36.04619,139.412646 33.3278415,137.789985 32.652042,135.112532 L20.9853753,88.8903099 Z" id="Path-7" fill="#3F64ED" fill-rule="nonzero"></path>
                <path d="M101.40625,142.514691 C99.5901451,140.434493 99.8042349,137.275915 101.884433,135.45981 C103.964631,133.643705 107.123209,133.857795 108.939314,135.937993 L121.170237,149.947505 C122.986342,152.027703 122.772253,155.186281 120.692054,157.002386 C118.611856,158.818491 115.453279,158.604401 113.637174,156.524203 L101.40625,142.514691 Z" id="Path-19" fill="#FF287A" fill-rule="nonzero"></path>
                <path d="M8.00359308,96.9603471 C7.28911311,94.2929552 8.87226102,91.5514064 11.5396529,90.8369264 C14.2070448,90.1224464 16.9485936,91.7055944 17.6630736,94.3729862 L20.9964069,106.817431 C21.7108869,109.484823 20.127739,112.226371 17.4603471,112.940851 C14.7929552,113.655331 12.0514064,112.072183 11.3369264,109.404792 L8.00359308,96.9603471 Z" id="Path-9" fill="#3F64ED" fill-rule="nonzero"></path>
                <path d="M153.820441,7.11937584 C153.140862,4.44287939 154.759683,1.72224254 157.43618,1.04266336 C160.112676,0.363084184 162.833313,1.98190549 163.512892,4.65840194 L196.012892,132.658402 C196.692471,135.334898 195.07365,138.055535 192.397154,138.735114 C189.720657,139.414694 187.00002,137.795872 186.320441,135.119376 L153.820441,7.11937584 Z" id="Path-4" fill="#3F64ED" fill-rule="nonzero"></path>
                <path d="M99.058844,76.082841 C96.3494676,76.6164518 93.720507,74.8526453 93.1868961,72.1432689 C92.6532853,69.4338924 94.4170918,66.8049318 97.1264682,66.271321 C122.361177,61.3013531 138.65697,48.695645 146.615186,28.225499 C147.615792,25.6517374 150.513389,24.3764428 153.087151,25.3770488 C155.660912,26.3776549 156.936207,29.2752523 155.935601,31.8490139 C146.679932,55.6564721 127.520567,70.4773137 99.058844,76.082841 Z" id="Path-5" fill="#3F64ED" fill-rule="nonzero"></path>
                <path d="" id="Path-8" stroke="#3F64ED"></path>
                <path d="M103.959824,192.508088 L112.311665,189.679135 L112.383133,188.869447 L109.03394,183.499432 C107.884225,181.656006 107.042551,179.637567 106.541999,177.523446 L95.2405459,129.790897 L72.696663,135.832258 L103.959824,192.508088 Z M57.7716492,129.47905 L102.598928,117.466134 L116.272967,175.219481 C116.523243,176.276542 116.944081,177.285762 117.518938,178.207474 L122.638553,186.416143 L122.272938,190.55837 C121.924328,194.50794 119.275184,197.878528 115.519841,199.150546 L107.167999,201.979498 C102.582149,203.532827 97.5422333,201.577674 95.2036375,197.33812 L57.7716492,129.47905 Z" id="Path-18" fill="#3F64ED" fill-rule="nonzero"></path>
                <path d="M50.3333333,72.7777778 L50.3333333,123.888889 L97,123.888889 L97,72.7777778 L50.3333333,72.7777778 Z M50.3333333,62.7777778 L97,62.7777778 C102.522847,62.7777778 107,67.2549303 107,72.7777778 L107,123.888889 C107,129.411736 102.522847,133.888889 97,133.888889 L50.3333333,133.888889 C44.8104858,133.888889 40.3333333,129.411736 40.3333333,123.888889 L40.3333333,72.7777778 C40.3333333,67.2549303 44.8104858,62.7777778 50.3333333,62.7777778 Z" id="Rectangle-6" fill="#3F64ED" fill-rule="nonzero" transform="translate(73.666667, 98.333333) rotate(-15.000000) translate(-73.666667, -98.333333) "></path>
                <circle id="Oval-4" fill="#FF287A" cx="57.5" cy="86.4444444" r="5"></circle>
                <circle id="Oval-4" fill="#FF287A" cx="90.3333333" cy="109.333333" r="5"></circle>
                <path d="M17.3225411,82.2331082 C-0.707978674,73.3437665 -9.68328375,104.222787 18.8577747,108.341766 C47.3988332,112.460744 35.3530609,91.1224499 17.3225411,82.2331082 Z" id="Path-22" fill-opacity="0.2" fill="#3F64ED" transform="translate(18.214751, 94.748773) rotate(-255.000000) translate(-18.214751, -94.748773) "></path>
                <path d="M188.000961,52.1116979 C169.970441,43.2223562 160.995136,74.1013769 189.536195,78.2203555 C218.077253,82.339334 206.031481,61.0010395 188.000961,52.1116979 Z" id="Path-22" fill-opacity="0.2" fill="#FF287A" transform="translate(188.893171, 64.627363) rotate(-255.000000) translate(-188.893171, -64.627363) "></path>
                <path d="M86.1983105,168.339479 C75.8461148,139.952079 92.8129512,112.597242 104.718611,146.549395 C116.624272,180.501547 130.610713,188.570041 123.417757,198.860098 C116.2248,209.150155 96.5505061,196.726879 86.1983105,168.339479 Z" id="Path-23" fill-opacity="0.2" fill="#3F64ED"></path>
            </g>
        </g>
    </g>
</svg>