<svg xmlns="http://www.w3.org/2000/svg" xmlns:xlink="http://www.w3.org/1999/xlink" width="204" height="203" viewBox="0 0 204 203">
    <defs>
        <path id="a" d="M57.772 124.479l37.432 67.86a10 10 0 0 0 11.964 4.64l8.352-2.828a10 10 0 0 0 6.753-8.593l.366-4.142-5.12-8.209a10 10 0 0 1-1.246-2.988l-13.674-57.753-44.827 12.013z"/>
    </defs>
    <g fill="none" fill-rule="evenodd" transform="translate(-1 5)">
        <path fill="#3F64ED" fill-opacity=".2" d="M60.442 57.409L41.38 84.414a10 10 0 0 0 .216 11.828L59.63 119.9a10 10 0 0 0 13.25 2.42l36.17-22.593c4.684-2.926 6.11-9.095 3.184-13.779a10 10 0 0 0-2.24-2.515l-35.14-28.07c-4.315-3.448-10.608-2.744-14.055 1.571a10 10 0 0 0-.356.475z"/>
        <path stroke="#FF287A" stroke-linecap="round" stroke-width="10" d="M189.649 75.32c4.132-2.416 6.934-7.1 6.934-12.481 0-7.855-5.97-14.222-13.333-14.222"/>
        <path stroke="#3F64ED" stroke-linecap="round" stroke-width="10" d="M107.453 105.966c23.701-7.468 44.947-9.605 67.267 8.936M25.833 82.667L37.5 128.889"/>
        <path stroke="#FF287A" stroke-linecap="round" stroke-width="10" d="M105.173 134.226l12.23 14.01"/>
        <path stroke="#3F64ED" stroke-linecap="round" stroke-width="10" d="M12.833 90.667l3.334 12.444M158.667.889l32.5 128M98.093 66.177c26.848-5.288 44.575-19 53.182-41.14"/>
        <use fill="#FFF" xlink:href="#a"/>
        <path stroke="#3F64ED" stroke-width="10" d="M65.234 127.656l34.348 62.267a5 5 0 0 0 5.982 2.32l8.352-2.828a5 5 0 0 0 3.376-4.296l.219-2.476-4.235-6.79a15 15 0 0 1-1.869-4.482L98.92 118.63l-33.686 9.027z"/>
        <rect width="56.667" height="61.111" x="45.333" y="62.778" stroke="#3F64ED" stroke-width="10" rx="10" transform="rotate(-15 73.667 93.333)"/>
        <circle cx="57.5" cy="81.444" r="5" fill="#FF287A"/>
        <circle cx="90.333" cy="104.333" r="5" fill="#FF287A"/>
        <path fill="#3F64ED" fill-opacity=".2" d="M30.535 92.126c13.253-15.115-14.25-31.777-25.616-5.274-11.366 26.502 12.363 20.39 25.616 5.274z"/>
        <path fill="#FF287A" fill-opacity=".2" d="M201.213 62.005c13.253-15.116-14.25-31.777-25.616-5.275-11.366 26.503 12.363 20.39 25.616 5.275z"/>
        <path fill="#3F64ED" fill-opacity=".2" d="M86.198 163.34c-10.352-28.388 6.615-55.743 18.52-21.79 11.906 33.952 25.893 42.02 18.7 52.31-7.193 10.29-26.867-2.133-37.22-30.52z"/>
    </g>
</svg>
