<?xml version="1.0" encoding="UTF-8"?>
<svg width="241px" height="47px" viewBox="0 0 241 47" version="1.1" xmlns="http://www.w3.org/2000/svg" xmlns:xlink="http://www.w3.org/1999/xlink">
    <!-- Generator: Sketch 48.2 (47327) - http://www.bohemiancoding.com/sketch -->
    <title>Page 1</title>
    <desc>Created with Sketch.</desc>
    <defs>
        <polygon id="path-1" points="0.226454545 0.608511765 58.6590909 0.608511765 58.6590909 46.4335118 0.226454545 46.4335118"></polygon>
        <polygon id="path-3" points="0.226454545 0.608511765 58.6590909 0.608511765 58.6590909 46.4335118 0.226454545 46.4335118"></polygon>
    </defs>
    <g id="querycon18-copy-5" stroke="none" stroke-width="1" fill="none" fill-rule="evenodd" transform="translate(-682.000000, -7644.000000)">
        <g id="read-the-osquery-docs" transform="translate(650.000000, 7514.000000)">
            <g id="Group-35">
                <g id="Page-1" transform="translate(32.000000, 130.000000)">
                    <g id="Group-4" transform="translate(126.000000, 0.000000)">
                        <path d="M16.5810704,45.4376647 L35.5744037,2.05942941 C35.8758852,1.38207647 35.5072556,0.829135294 34.7795889,0.829135294 L21.4869963,0.829135294 C20.7469963,0.829135294 19.9247741,1.38207647 19.6369963,2.05942941 L0.876625926,45.4238412 C0.588848148,46.1011941 0.945144444,46.6541353 1.67144074,46.6541353 L14.718737,46.6541353 C15.443663,46.6541353 16.2932926,46.1011941 16.5810704,45.4376647" id="Fill-1" fill="#0021BA"></path>
                        <path d="M16.5810704,45.4376647 L35.5744037,2.05942941 C35.8758852,1.38207647 35.5072556,0.829135294 34.7795889,0.829135294 L21.4869963,0.829135294 C20.7469963,0.829135294 19.9247741,1.38207647 19.6369963,2.05942941 L0.876625926,45.4238412 C0.588848148,46.1011941 0.945144444,46.6541353 1.67144074,46.6541353 L14.718737,46.6541353 C15.443663,46.6541353 16.2932926,46.1011941 16.5810704,45.4376647" id="Stroke-3" stroke="#FFFFFF" stroke-width="0.5" stroke-linejoin="bevel"></path>
                    </g>
                    <g id="Group-7" transform="translate(182.000000, 0.000000)">
                        <mask id="mask-2" fill="white">
                            <use xlink:href="#path-1"></use>
                        </mask>
                        <g id="Clip-6"></g>
                        <polygon id="Fill-5" fill="#0021BA" mask="url(#mask-2)" points="29.3278182 33.5223353 58.6596364 0.608511765 24.3505455 0.608511765 16.6050909 13.2846882 30.0491818 13.2846882 0.226454545 46.4335118 36.5414545 46.4335118 50.0687273 33.5223353"></polygon>
                    </g>
                    <g id="Group-10" transform="translate(182.000000, 0.000000)">
                        <mask id="mask-4" fill="white">
                            <use xlink:href="#path-3"></use>
                        </mask>
                        <g id="Clip-9"></g>
                        <polyline id="Stroke-8" stroke="#FFFFFF" stroke-width="0.5" stroke-linejoin="bevel" mask="url(#mask-4)" points="29.3278182 33.5223353 58.6596364 0.608511765 24.3505455 0.608511765 16.6050909 13.2846882 30.0491818 13.2846882 0.226454545 46.4335118 36.5414545 46.4335118 50.0687273 33.5223353 29.3278182 33.5223353"></polyline>
                    </g>
                    <path d="M77.4381659,13.8563469 L74.636932,20.0054495 C73.9810333,21.4850349 73.038179,21.5800541 72.1089892,21.5529057 L65.7549708,21.5529057 L70.0046476,11.9966846 L76.0990394,11.9966846 C77.5748115,12.0781296 77.957419,12.6210967 77.4381659,13.8563469 M84.07914,1.00160053 L61.3276547,1.00160053 C60.056851,1.00160053 58.6084081,1.95179298 58.1028196,3.1055981 L40.1749225,43.8960024 C39.6693339,45.0498076 40.2979035,46 41.5687072,46 L52.8556302,46 C54.1264339,46 55.5748768,45.0498076 56.0804653,43.8960024 L61.1910092,32.3443771 L66.4928568,32.3443771 C68.146268,32.2493579 68.8568249,32.8330475 67.9412997,34.7470066 L64.0059076,43.8824283 C63.5003191,45.0498076 64.1425532,46 65.4133569,46 L76.6866153,46 C77.957419,46 79.4058619,45.0498076 79.9114505,43.8960024 L85.0493234,32.1136161 C86.6480764,28.2992721 84.325102,25.3265272 80.9362922,25.163637 C83.9424944,24.1048512 86.6890701,21.1321062 87.9325447,18.4715674 L90.5834685,12.2545939 C93.7946391,5.04670552 91.5126583,0.906581289 84.07914,1.00160053" id="Fill-11" fill="#0021BA"></path>
                    <path d="M121.266429,14.1004573 L120.126043,16.6795692 L119.963131,17.0189261 C119.433667,18.308482 118.442617,18.7835816 117.329384,18.7564331 L110.812896,18.7564331 L113.79962,11.9149992 L120.424716,11.9149992 C121.632981,11.9964449 121.80947,12.7701785 121.266429,14.1004573 M116.962831,29.1814751 L115.320133,32.4393008 C114.505572,34.7197787 113.093667,35.330621 111.084416,35.3713438 L103.590455,35.3713438 L107.174523,26.8874229 L114.682061,26.8874229 C116.786343,27.0503142 117.628056,27.5797109 116.962831,29.1814751 M128.704728,1.00128333 L104.73084,1.00128333 C103.834823,1.00128333 102.803046,1.679997 102.450069,2.50802769 L84.1224467,44.4932556 C83.7694703,45.3212863 84.2039028,46 85.113496,46 L110.758592,46 C118.890626,45.8778315 123.5472,44.0588789 127.267028,35.4663638 L129.900776,29.7244461 C131.991482,24.8105591 129.941504,22.6793981 126.072339,22.0685558 C129.289855,21.0640596 131.719962,18.0234223 132.765315,15.3628647 L134.923902,10.8154831 C137.544073,4.72063427 135.344758,0.919837685 128.704728,1.00128333" id="Fill-13" fill="#0021BA"></path>
                    <g id="Group-18" transform="translate(154.000000, 0.000000)">
                        <path d="M11.2768139,0.608373529 L5.68400833,13.28455 L13.6451472,13.28455 C14.1909528,13.28455 14.4482028,13.6854324 14.230425,14.1969029 L0.306258333,45.5071971 C0.0762305556,46.0186676 0.333480556,46.4333735 0.877925,46.4333735 L15.0892861,46.4333735 C15.6323694,46.4333735 16.2448694,46.0186676 16.4640083,45.5071971 L29.8437306,14.1969029 C30.0615083,13.6992559 30.6726472,13.28455 31.2170917,13.28455 L39.3973694,13.28455 L47.0753972,0.608373529 L11.2768139,0.608373529" id="Fill-15" fill="#0021BA"></path>
                        <path d="M11.2768139,0.608373529 L5.68400833,13.28455 L13.6451472,13.28455 C14.1909528,13.28455 14.4482028,13.6854324 14.230425,14.1969029 L0.306258333,45.5071971 C0.0762305556,46.0186676 0.333480556,46.4333735 0.877925,46.4333735 L15.0892861,46.4333735 C15.6323694,46.4333735 16.2448694,46.0186676 16.4640083,45.5071971 L29.8437306,14.1969029 C30.0615083,13.6992559 30.6726472,13.28455 31.2170917,13.28455 L39.3973694,13.28455 L47.0753972,0.608373529 L11.2768139,0.608373529" id="Stroke-17" stroke="#0021BA" stroke-width="0.5" stroke-linejoin="bevel"></path>
                    </g>
                    <path d="M43.5043359,1.00140707 L26.5186342,1.00140707 C19.5480218,0.919391106 13.6932584,4.8151496 10.4696945,12.0872321 L4.94555307,27.3011942 L0,27.3011942 L9.49160464,40 L25.1685946,27.3011942 L21.1735796,27.3011942 L26.0502531,16.1880305 C26.7803765,14.4520259 28.0753124,13.6045275 29.4529038,13.5361809 L32.1254311,13.5361809 C32.6764677,13.5635196 33.0759692,13.7138822 33.3377115,13.9735994 L42.1956241,6.72885553 L47.7473174,16.2016999 L49.3315475,12.5656586 C52.9408369,4.41873909 50.5576038,0.919391106 43.5043359,1.00140707" id="Fill-19" fill="#0021BA"></path>
                    <path d="M41.3825462,10 L25.8026452,22.8088855 L30.0943629,22.8088855 L26.6582288,30.6817311 C25.9130431,32.2259671 24.7538654,33.0808119 23.4980895,33.1221754 L21.4557287,33.1221754 L8.82897102,43.3527384 L2.12229974,34.1976254 C-1.43803192,42.2772884 -0.803244108,45.8759096 6.20702134,46 L22.9874993,46 C29.928766,45.8759096 36.0144492,42.1945615 39.2849865,34.8180774 L44.5288858,22.8088855 L49,22.8088855 L41.3825462,10" id="Fill-21" fill="#54B7F4"></path>
                </g>
            </g>
        </g>
    </g>
</svg>