<svg xmlns="http://www.w3.org/2000/svg" width="494" height="189" viewBox="0 0 494 189">
    <g fill="none" fill-rule="evenodd">
        <path fill="#FDBD39" fill-opacity=".2" d="M157.008 145.942c3.057-31.365 32.387-43.87 32.521-11.606.134 32.262-35.578 42.971-32.521 11.606z"/>
        <path fill="#FDBD39" fill-opacity=".2" d="M127.008 145.942c3.057-31.365 32.387-43.87 32.521-11.606.134 32.262-35.578 42.971-32.521 11.606zM187.008 145.942c3.057-31.365 32.387-43.87 32.521-11.606.134 32.262-35.578 42.971-32.521 11.606z"/>
        <path fill="#3F64ED" fill-opacity=".1" d="M18.55 149.46c19.565-10.358 38.778-10 26.551 4.983-12.226 14.983 9.335 2.742 46.16-9.67 36.825-12.411 27.722 9.148 6.76 23.77-20.963 14.623-61.257 24.014-83.455 19.174-22.199-4.84-15.581-27.897 3.984-38.256z"/>
        <path fill="#FDBD39" fill-opacity=".2" d="M271.07 121.45c22.318-36.355 60.088-12.405 36.415 21.052-23.673 33.458-58.731 15.303-36.414-21.052zM287.986 1.484C237.246.056 169.28 103.667 238.239 92.341c68.96-11.325 100.486-89.43 49.747-90.857z"/>
        <path stroke="#FFCA8A" stroke-linecap="round" stroke-width="10" d="M234.149 34.712C245.244 20.685 265.066 5 291.78 5c28.236 0 49.451 16.127 60.843 30.916M218 53h150.053M203 81h180M48.997 119H212M373.997 119h101.008M248 88v64"/>
        <path stroke="#FFCA8A" stroke-linecap="round" stroke-linejoin="round" stroke-width="10" d="M278 157v-41c0-8.284 6.716-15 15-15 8.284 0 15 6.716 15 15v41"/>
        <path stroke="#FFCA8A" stroke-linecap="round" stroke-width="10" d="M218 88v64M188 119.949v36M158 119.949v36M128 119.949v36M98 119.949v36M68 119.949v36M398 119.949v36M428 119.949v36M458 119.949v36M338 88v64M368 88v64"/>
        <path stroke="#3F64ED" stroke-linecap="round" stroke-linejoin="round" stroke-width="10" d="M20 167.712l3.844-.188c8.279-.405 14.783-7.235 14.783-15.524 0 8.538 6.704 15.46 14.974 15.46 8.269 0 14.973-6.922 14.973-15.46 0 8.538 6.703 15.46 14.973 15.46S98.52 160.537 98.52 152c0 8.538 6.704 15.46 14.973 15.46 8.27 0 14.974-6.922 14.974-15.46 0 8.538 6.703 15.46 14.973 15.46s14.973-6.922 14.973-15.46c0 8.538 6.704 15.46 14.973 15.46 8.27 0 14.974-6.922 14.974-15.46 0 8.538 6.703 15.46 14.973 15.46s14.973-6.922 14.973-15.46c0 8.538 6.704 15.46 14.973 15.46 8.27 0 14.973-6.922 14.973-15.46 0 8.538 6.704 15.46 14.974 15.46s14.973-6.922 14.973-15.46c0 8.538 6.704 15.46 14.973 15.46 8.27 0 14.973-6.922 14.973-15.46 0 8.538 6.704 15.46 14.973 15.46 8.27 0 14.974-6.922 14.974-15.46 0 8.538 6.703 15.46 14.973 15.46s14.973-6.922 14.973-15.46c0 8.724-7.072 15.796-15.796 15.796h-.004"/>
        <path stroke="#3F64ED" stroke-linecap="round" stroke-linejoin="round" stroke-width="10" d="M188.627 152c0 8.538 6.704 15.46 14.974 15.46 8.269 0 14.973-6.922 14.973-15.46 0 8.538 6.703 15.46 14.973 15.46s14.973-6.922 14.973-15.46c0 8.538 6.704 15.46 14.973 15.46 8.27 0 14.974-6.922 14.974-15.46 0 8.538 6.703 15.46 14.973 15.46s14.973-6.922 14.973-15.46c0 8.538 6.704 15.46 14.973 15.46 8.27 0 14.974-6.922 14.974-15.46 0 8.538 6.703 15.46 14.973 15.46s14.973-6.922 14.973-15.46c0 8.538 6.704 15.46 14.973 15.46 8.27 0 14.973-6.922 14.973-15.46 0 8.538 6.704 15.46 14.974 15.46s14.973-6.922 14.973-15.46c0 8.538 6.704 15.46 14.973 15.46 8.27 0 14.973-6.922 14.973-15.46 0 8.538 6.704 15.46 14.973 15.46 8.27 0 14.974-6.922 14.974-15.46 0 8.65-7.012 15.662-15.662 15.662h-.047"/>
        <path fill="#FFCA8A" d="M367 103h11a4 4 0 0 1 4 4v17h-19v-17a4 4 0 0 1 4-4zM452 103h11a4 4 0 0 1 4 4v17h-19v-17a4 4 0 0 1 4-4zM123 103h11a4 4 0 0 1 4 4v17h-19v-17a4 4 0 0 1 4-4zM208 103h11a4 4 0 0 1 4 4v17h-19v-17a4 4 0 0 1 4-4z"/>
    </g>
</svg>
