<?xml version="1.0" encoding="UTF-8"?>
<svg width="187px" height="160px" viewBox="0 0 187 160" version="1.1" xmlns="http://www.w3.org/2000/svg" xmlns:xlink="http://www.w3.org/1999/xlink">
    <!-- Generator: Sketch 48.2 (47327) - http://www.bohemiancoding.com/sketch -->
    <title>contact-airplane</title>
    <desc>Created with Sketch.</desc>
    <defs></defs>
    <g id="querycon-questions-section" stroke="none" stroke-width="1" fill="none" fill-rule="evenodd" transform="translate(-1024.000000, -9312.000000)">
        <g id="Group-41" transform="translate(305.000000, 8966.000000)">
            <g id="read-the-osquery-docs" transform="translate(690.000000, 276.000000)">
                <g id="Group-35">
                    <g id="contact-airplane" transform="translate(29.166667, 75.000000)">
                        <g id="megaphone-copy" transform="translate(0.000000, 1.666667)" fill-opacity="0.2">
                            <path d="M177.807424,0.217033575 L88.8681317,85.287262 C86.3158999,87.7284656 85.2406457,91.3349017 86.0393231,94.7751745 C92.6901107,123.423193 97.7736671,137.747202 101.289992,137.747202 C104.638303,137.747202 114.996087,129.398078 132.363343,112.699829 L132.363314,112.699799 C135.891222,109.30779 136.034367,103.70906 132.684405,100.141202 L132.225849,99.6528226 C128.990358,96.2068805 128.609562,90.9661289 131.312933,87.0886668 C154.551879,53.7568923 170.050042,30.8894469 177.807424,18.4863307 C186.070262,5.27505264 186.070262,-0.814713082 177.807424,0.217033575 Z" id="Path-21" fill="#3F64ED"></path>
                            <path d="M11.7717692,99.8884367 C-3.25366394,87.2324753 -3.20080591,127.793316 11.7717692,130.831462 C26.7443444,133.869609 26.7972024,112.544398 11.7717692,99.8884367 Z" id="Path-22" fill="#FF287A" transform="translate(11.771769, 114.286627) rotate(-180.000000) translate(-11.771769, -114.286627) "></path>
                        </g>
                        <g id="Group-4" transform="translate(8.333333, 0.000000)" fill-rule="nonzero">
                            <path d="M136.744315,43.493089 L84.6507786,94.8018469 C82.6833942,96.739593 79.5176605,96.7155665 77.5799144,94.7481821 C75.6421683,92.7807978 75.6661948,89.6150641 77.6335792,87.677318 L169.742475,-3.04397546 L177.333756,3.4047592 L108.814294,100.32007 C107.220141,102.574873 104.099945,103.110435 101.845142,101.516282 C99.5903395,99.9221282 99.0547774,96.8019326 100.648931,94.5471298 L136.744315,43.493089 Z" id="Path-43" fill="#3F64ED"></path>
                            <path d="M101.626154,135.197648 C100.021257,137.444817 96.8985415,137.965482 94.6513722,136.360586 C92.404203,134.75569 91.8835378,131.632974 93.4884339,129.385805 L114.263953,100.296005 C115.868849,98.0488356 118.991565,97.5281704 121.238734,99.1330665 C123.485903,100.737963 124.006569,103.860679 122.401673,106.107848 L101.626154,135.197648 Z" id="Path-44" fill="#3F64ED"></path>
                            <path d="M-4.12040934,111.649195 C-4.77054366,108.965394 -3.12193128,106.262705 -0.438130525,105.612571 C2.24567023,104.962437 4.94835861,106.611049 5.59849293,109.29485 C5.95425431,110.763458 6.37974756,112.204584 6.87328343,113.615481 C7.78506348,116.222034 6.41117859,119.074206 3.80462565,119.985986 C1.1980727,120.897766 -1.65409973,119.523881 -2.56587978,116.917328 C-3.16820318,115.195435 -3.68706029,113.43809 -4.12040934,111.649195 Z M7.92978735,134.923892 C6.1121064,132.845071 6.3238023,129.686332 8.40262338,127.868651 C10.4814445,126.05097 13.6401835,126.262666 15.4578644,128.341487 C16.4454984,129.471011 17.4902149,130.553066 18.5883707,131.584276 C20.6013862,133.474575 20.7008679,136.638836 18.8105691,138.651852 C16.9202704,140.664867 13.7560089,140.764349 11.7429933,138.87405 C10.4062739,137.618819 9.133674,136.300737 7.92978735,134.923892 Z M29.1885598,150.099647 C26.6374158,149.042705 25.4261256,146.117774 26.4830672,143.56663 C27.5400089,141.015486 30.4649402,139.804196 33.0160841,140.861137 C34.4110281,141.439064 35.8361752,141.954357 37.2870125,142.405076 C39.924113,143.224321 41.3977763,146.026242 40.5785316,148.663343 C39.7592868,151.300443 36.9573654,152.774106 34.3202649,151.954862 C32.5780441,151.413621 30.8656663,150.794474 29.1885598,150.099647 Z M54.7050671,154.649716 C51.9454043,154.748319 49.628322,152.591104 49.5297189,149.831441 C49.4311157,147.071779 51.5883308,144.754696 54.3479935,144.656093 C55.8640759,144.601923 57.3844991,144.48228 58.9059554,144.296761 C61.6470767,143.962523 64.140148,145.913688 64.4743858,148.654809 C64.8086237,151.395931 62.8574592,153.889002 60.1163378,154.22324 C58.3115465,154.443306 56.5064264,154.585353 54.7050671,154.649716 Z M79.8902525,148.581054 C77.3791543,149.7299 74.4121833,148.625576 73.2633374,146.114478 C72.1144914,143.60338 73.218815,140.636409 75.7299132,139.487563 C77.120334,138.851435 78.4996021,138.157442 79.8659329,137.405671 C82.2853203,136.074496 85.3257516,136.956667 86.6569261,139.376054 C87.9881007,141.795442 87.10593,144.835873 84.6865426,146.167048 C83.1046696,147.037412 81.5051783,147.842214 79.8902525,148.581054 Z" id="Path-41" fill="#FF287A"></path>
                            <path d="M54.0530145,75.5039818 L83.7379984,86.2931934 C85.1081603,86.7911882 86.1927358,87.8623824 86.7077013,89.2262568 L96.0650006,114.008852 L99.5483126,96.5245636 C100.166992,93.4191357 103.479879,91.6635519 106.39694,92.8953 L148.131306,110.517911 L165.759568,10.6183188 L54.0530145,75.5039818 Z M78.1635967,94.9071618 L40.5880526,81.2500718 C36.6011778,79.8010147 36.1165233,74.3579543 39.7846567,72.2272891 L170.04216,-3.43384457 C173.720282,-5.5703115 178.216622,-2.43030265 177.477454,1.75857537 L156.889084,118.433133 C156.331008,121.595761 152.97871,123.419715 150.020163,122.170449 L108.157213,104.493543 L102.459982,133.09047 C101.478003,138.019463 94.6539851,138.581582 92.8786766,133.879717 L78.1635967,94.9071618 Z" id="Path-42" fill="#3F64ED"></path>
                        </g>
                    </g>
                </g>
            </g>
        </g>
    </g>
</svg>