<svg xmlns="http://www.w3.org/2000/svg" width="64" height="64" viewBox="0 0 64 64">
    <g id="Page-1" stroke="none" stroke-width="1" fill="none" fill-rule="evenodd">
        <g id="querycon18-more-speakers-link-to-topics-copy" transform="translate(-242.000000, -149.000000)">
            <g id="querycon-dark-64" transform="translate(242.000000, 149.000000)">
                <path d="M34.6410189,20.671674 C34.2344267,20.2372729 33.8085061,19.7838278 33.3616705,19.3106542 C26.1197216,11.6426168 26.1865429,0 31.3317865,0 C32.1618561,0 33.0750812,0.466542056 34.2659861,1.7211215 C35.456891,2.97570093 42.8993039,10.8007477 45.8275638,13.8781308 C52.0553132,20.1824299 41.1511314,27.6270449 34.6410189,20.671674 Z" id="Shape" fill="#FF287A"></path>
                <path d="M57.3817169,1.7211215 C56.1937819,2.97271028 48.7483991,10.8007477 45.8216241,13.8796262 C39.5938747,20.1824299 38.4950348,21.4908411 34.632761,20.6624299 L34.6431555,20.6728972 L35.3559165,21.4340187 L38.9375406,25.271028 C42.0974478,28.5906542 43.5407889,29.7016822 45.8186543,29.7016822 C49.1255684,29.7016822 50.6728538,27.3614953 58.2741531,19.3106542 C65.5220418,11.6426168 65.4552204,0 60.3159165,0 C59.4843619,0 58.5741067,0.466542056 57.3817169,1.7211215 Z" id="Shape" fill="#00125F"></path>
                <path d="M20.5123102,29.5505845 C20.0856396,29.9557353 19.6405016,30.3799174 19.1762413,30.8246729 C11.5600928,38.1158879 0,38.0485981 0,32.873271 C0,32.0373832 0.463294664,31.117757 1.70914153,29.92 L13.7815313,18.2758879 C20.0464037,12.0059813 27.4303984,22.9814203 20.5123102,29.5505845 Z" id="Shape" fill="#FF287A"></path>
                <path d="M0,3.68 C0,4.51588785 0.463294664,5.43551402 1.70914153,6.63476636 C2.9549884,7.83401869 10.7255684,15.3285981 13.7815313,18.2773832 C20.041949,24.548785 21.3412529,25.6553271 20.5186079,29.5431776 L20.5290023,29.5342056 L21.284826,28.8164486 L25.0951276,25.2082243 C28.3916473,22.0246729 29.494942,20.5727103 29.494942,18.2788785 C29.494942,14.948785 27.1695592,13.3906542 19.1762413,5.73457944 C15.0630162,1.79439252 9.80046404,0 5.82979118,0 C2.44566125,0 0,1.29943925 0,3.68 Z" id="Shape" fill="#00125F"></path>
                <path d="M30.6086311,44.6579439 C37.85058,52.3259813 37.7837587,63.9685981 32.6444548,63.9685981 C31.8143852,63.9685981 30.902645,63.5005607 29.7102552,62.2474766 C28.5178654,60.9943925 21.0769374,53.1678505 18.1486775,50.0934579 C11.9209281,43.7891589 24.8537859,38.7221554 29.3286133,43.3080037 C29.7611502,43.751272 30.1618896,44.1851381 30.6086311,44.6579439 Z" id="Shape" fill="#FF287A"></path>
                <path d="M18.1486775,34.2699065 C14.8417633,34.2699065 13.2959629,36.6115888 5.69317865,44.6579439 C-1.55174014,52.3259813 -1.48491879,63.9685981 3.65438515,63.9685981 C4.48445476,63.9685981 5.3961949,63.5020561 6.58858469,62.2474766 C7.78097448,60.9928972 15.2219026,53.1678505 18.1486775,50.0919626 C24.3779118,43.7876636 25.4752668,42.477757 29.3375406,43.3046729 L29.3286311,43.2957009 L28.6158701,42.5345794 L25.032761,38.7005607 C21.8713689,35.3809346 20.4295128,34.2714019 18.1531323,34.2714019 L18.1486775,34.2699065 Z" id="Shape" fill="#00125F"></path>
                <path d="M43.448036,34.4274666 C43.8777367,34.019462 44.326188,33.592141 44.7940603,33.1439252 C52.4087239,25.8527103 63.9703016,25.92 63.9703016,31.1028037 C63.9703016,31.9386916 63.505522,32.8583178 62.2611601,34.0575701 C61.0167981,35.2568224 53.2447332,42.7439252 50.1902552,45.6927103 C43.9298376,51.9641121 36.5379238,40.988681 43.448036,34.4274666 Z" id="Shape" fill="#FF287A"></path>
                <path d="M43.4412993,34.4358879 L42.6854756,35.1536449 L38.8781439,38.7603738 C35.5816241,41.9439252 34.4783295,43.3958879 34.4783295,45.6897196 C34.4783295,49.0198131 36.8037123,50.5794393 44.7955452,58.2340187 C52.4102088,65.526729 63.9717865,65.4594393 63.9717865,60.2856075 C63.9717865,59.4482243 63.507007,58.5285981 62.2641299,57.3293458 C61.0212529,56.1300935 53.2462181,48.635514 50.1917401,45.6882243 C43.9298376,39.4153271 42.6305336,38.308785 43.4531787,34.4209346 L43.4412993,34.4358879 Z" id="Shape" fill="#00125F"></path>
            </g>
        </g>
    </g>
</svg>
