<svg xmlns="http://www.w3.org/2000/svg" xmlns:xlink="http://www.w3.org/1999/xlink" width="198" height="200" viewBox="0 0 198 200">
    <defs>
        <path id="a" d="M52.835 94.118L0 46.94V0l52.835 46.94L105.67 0v46.94L52.835 94.119z"/>
        <linearGradient id="c" x1="52.343%" x2="68.416%" y1="42.53%" y2="69.935%">
            <stop offset="0%" stop-color="#E7F3FF"/>
            <stop offset="100%" stop-color="#93C4FF"/>
        </linearGradient>
        <path id="d" d="M52.835 94.118L0 46.94V0l52.835 46.94L105.67 0v46.94L52.835 94.119z"/>
        <path id="f" d="M52.835 94.118L0 46.94V0l52.835 46.94L105.67 0v46.94L52.835 94.119z"/>
        <path id="h" d="M52.835 94.118L0 46.94V0l52.835 46.94L105.67 0v46.94L52.835 94.119z"/>
    </defs>
    <g fill="none" fill-rule="evenodd">
        <g transform="translate(92 7)">
            <mask id="b" fill="#fff">
                <use xlink:href="#a"/>
            </mask>
            <path fill="#FF287A" d="M0 17.809v11.223A40 40 0 0 0 13.359 58.87L36.175 79.24a10 10 0 1 0 16.66-7.46v-24.84L13.313 11.828A8 8 0 0 0 0 17.808z" mask="url(#b)"/>
            <path fill="#202532" fill-opacity=".04" d="M54.978 42.692L33.653 60.693c-5.463 4.611-11.079 7.214-16.847 7.807l9.055 5.66L47.48 58.427l11.024-12.28-3.526-3.454z" mask="url(#b)"/>
            <path fill="url(#c)" d="M92.36 11.811A58024.742 58024.742 0 0 0 44.534 54.29C32.514 64.983 25.529 69.54 23.58 67.958l15.932 14.247c7.587 6.785 19.06 6.789 26.653.01L92.31 58.869a40 40 0 0 0 13.359-29.837V17.795a8 8 0 0 0-13.31-5.984z" mask="url(#b)"/>
            <path fill="#FFF" fill-opacity=".6" d="M92.36 11.811A58024.742 58024.742 0 0 0 44.534 54.29C32.514 64.983 25.529 69.54 23.58 67.958l15.932 14.247c7.587 6.785 19.06 6.789 26.653.01L92.31 58.869a40 40 0 0 0 13.359-29.837V17.795a8 8 0 0 0-13.31-5.984z" mask="url(#b)"/>
        </g>
        <g transform="rotate(90 49.5 143)">
            <mask id="e" fill="#fff">
                <use xlink:href="#d"/>
            </mask>
            <path fill="#FF287A" d="M0 17.809v11.223A40 40 0 0 0 13.359 58.87L36.175 79.24a10 10 0 1 0 16.66-7.46v-24.84L13.313 11.828A8 8 0 0 0 0 17.808z" mask="url(#e)"/>
            <path fill="#202532" fill-opacity=".04" d="M54.978 42.692L33.653 60.693c-5.463 4.611-11.079 7.214-16.847 7.807l9.055 5.66L47.48 58.427l11.024-12.28-3.526-3.454z" mask="url(#e)"/>
            <path fill="url(#c)" d="M92.36 11.811A58024.742 58024.742 0 0 0 44.534 54.29C32.514 64.983 25.529 69.54 23.58 67.958l15.932 14.247c7.587 6.785 19.06 6.789 26.653.01L92.31 58.869a40 40 0 0 0 13.359-29.837V17.795a8 8 0 0 0-13.31-5.984z" mask="url(#e)"/>
            <path fill="#FFF" fill-opacity=".6" d="M92.36 11.811A58024.742 58024.742 0 0 0 44.534 54.29C32.514 64.983 25.529 69.54 23.58 67.958l15.932 14.247c7.587 6.785 19.06 6.789 26.653.01L92.31 58.869a40 40 0 0 0 13.359-29.837V17.795a8 8 0 0 0-13.31-5.984z" mask="url(#e)"/>
        </g>
        <g transform="rotate(-180 53 96.5)">
            <mask id="g" fill="#fff">
                <use xlink:href="#f"/>
            </mask>
            <path fill="#FF287A" d="M0 17.809v11.223A40 40 0 0 0 13.359 58.87L36.175 79.24a10 10 0 1 0 16.66-7.46v-24.84L13.313 11.828A8 8 0 0 0 0 17.808z" mask="url(#g)"/>
            <path fill="#202532" fill-opacity=".04" d="M54.978 42.692L33.653 60.693c-5.463 4.611-11.079 7.214-16.847 7.807l9.055 5.66L47.48 58.427l11.024-12.28-3.526-3.454z" mask="url(#g)"/>
            <path fill="url(#c)" d="M92.36 11.811A58024.742 58024.742 0 0 0 44.534 54.29C32.514 64.983 25.529 69.54 23.58 67.958l15.932 14.247c7.587 6.785 19.06 6.789 26.653.01L92.31 58.869a40 40 0 0 0 13.359-29.837V17.795a8 8 0 0 0-13.31-5.984z" mask="url(#g)"/>
            <path fill="#FFF" fill-opacity=".6" d="M92.36 11.811A58024.742 58024.742 0 0 0 44.534 54.29C32.514 64.983 25.529 69.54 23.58 67.958l15.932 14.247c7.587 6.785 19.06 6.789 26.653.01L92.31 58.869a40 40 0 0 0 13.359-29.837V17.795a8 8 0 0 0-13.31-5.984z" mask="url(#g)"/>
        </g>
        <g transform="rotate(-90 56 50.5)">
            <mask id="i" fill="#fff">
                <use xlink:href="#h"/>
            </mask>
            <path fill="#FF287A" d="M0 17.809v11.223A40 40 0 0 0 13.359 58.87L36.175 79.24a10 10 0 1 0 16.66-7.46v-24.84L13.313 11.828A8 8 0 0 0 0 17.808z" mask="url(#i)"/>
            <path fill="#202532" fill-opacity=".04" d="M54.978 42.692L33.653 60.693c-5.463 4.611-11.079 7.214-16.847 7.807l9.055 5.66L47.48 58.427l11.024-12.28-3.526-3.454z" mask="url(#i)"/>
            <path fill="url(#c)" d="M92.36 11.811A58024.742 58024.742 0 0 0 44.534 54.29C32.514 64.983 25.529 69.54 23.58 67.958l15.932 14.247c7.587 6.785 19.06 6.789 26.653.01L92.31 58.869a40 40 0 0 0 13.359-29.837V17.795a8 8 0 0 0-13.31-5.984z" mask="url(#i)"/>
            <path fill="#FFF" fill-opacity=".6" d="M92.36 11.811A58024.742 58024.742 0 0 0 44.534 54.29C32.514 64.983 25.529 69.54 23.58 67.958l15.932 14.247c7.587 6.785 19.06 6.789 26.653.01L92.31 58.869a40 40 0 0 0 13.359-29.837V17.795a8 8 0 0 0-13.31-5.984z" mask="url(#i)"/>
        </g>
    </g>
</svg>
