<?xml version="1.0" encoding="UTF-8"?>
<svg viewBox="0 0 200 200" version="1.1" xmlns="http://www.w3.org/2000/svg" xmlns:xlink="http://www.w3.org/1999/xlink">
    <!-- Generator: Sketch 48.2 (47327) - http://www.bohemiancoding.com/sketch -->
    <title>querycon-pp</title>
    <desc>Created with Sketch.</desc>
    <defs></defs>
    <g id="Page-1" stroke="none" stroke-width="1" fill="none" fill-rule="evenodd">
        <g id="querycon-pp">
            <path d="M109.497349,66.5817539 C107.931502,65.0159078 105.582733,62.6671386 102.451041,59.5354464 C91.7346766,48.8190819 85.7142857,34.2845726 85.7142857,19.1293446 L85.7142857,10.1428571 C85.7142857,4.54111182 90.2553975,0 95.8571429,0 C98.5471958,0 101.127071,1.06861938 103.029226,2.97077408 C121.43623,21.3777779 135.241483,35.1830309 144.444985,44.3865328 C153.439514,53.3810617 116.57667,73.6610751 109.497349,66.5817539 Z" id="Path-40" fill="#FF287A"></path>
            <path d="M154.978973,87.8197176 C148.284271,94.5144198 137.430014,94.5144198 130.735312,87.8197176 L107.143379,64.2987589 C114.285888,66.6710149 121.428571,64.2857143 128.571429,57.1428571 C135.714286,50 153.752163,31.942639 182.68506,2.97077408 C184.587214,1.06861938 187.16709,0 189.857143,0 C195.458888,0 200,4.54111182 200,10.1428571 L200,19.1293446 C200,34.2845726 193.979609,48.8190819 183.263245,59.5354464 L154.978973,87.8197176 Z" id="Path-40" fill="#FFFFFF"></path>
            <path d="M133.042979,109.872616 C134.692218,108.223377 137.166076,105.749519 140.464554,102.451041 C151.180918,91.7346766 165.715427,85.7142857 180.870655,85.7142857 L189.857143,85.7142857 C195.458888,85.7142857 200,90.2553975 200,95.8571429 C200,98.5471958 198.931381,101.127071 197.029226,103.029226 C178.550276,121.508176 164.691063,135.367389 155.451588,144.606864 C146.511019,153.547433 126.088747,116.826848 133.042979,109.872616 Z" id="Path-40" fill="#FF287A"></path>
            <path d="M112.180282,154.978973 C105.48558,148.284271 105.48558,137.430014 112.180282,130.735312 L135.701241,107.143379 C133.328985,114.285888 135.714286,121.428571 142.857143,128.571429 C150,135.714286 168.057361,153.752163 197.029226,182.68506 C198.931381,184.587214 200,187.16709 200,189.857143 C200,195.458888 195.458888,200 189.857143,200 L180.870655,200 C165.715427,200 151.180918,193.979609 140.464554,183.263245 L112.180282,154.978973 Z" id="Path-40" fill="#FFFFFF"></path>
            <path d="M90.2279398,133.143534 C91.8548329,134.770428 94.2951726,137.210767 97.5489589,140.464554 C108.265323,151.180918 114.285714,165.715427 114.285714,180.870655 L114.285714,189.857143 C114.285714,195.458888 109.744602,200 104.142857,200 C101.452804,200 98.8729288,198.931381 96.9707741,197.029226 C78.5863104,178.644762 64.7979627,164.856415 55.6057309,155.664183 C46.5942968,146.652749 83.2401891,126.155784 90.2279398,133.143534 Z" id="Path-40" fill="#FF287A"></path>
            <path d="M45.0210266,112.180282 C51.7157288,105.48558 62.5699855,105.48558 69.2646877,112.180282 L92.856621,135.701241 C85.7141118,133.328985 78.5714286,135.714286 71.4285714,142.857143 C64.2857143,150 46.2478372,168.057361 17.3149402,197.029226 C15.4127855,198.931381 12.8329101,200 10.1428571,200 C4.54111182,200 0,195.458888 0,189.857143 L0,180.870655 C0,165.715427 6.02039088,151.180918 16.7367554,140.464554 L45.0210266,112.180282 Z" id="Path-40" fill="#FFFFFF"></path>
            <path d="M65.4157056,91.6686997 C64.1089814,92.9754239 62.1488949,94.9355104 59.5354464,97.5489589 C48.8190819,108.265323 34.2845726,114.285714 19.1293446,114.285714 L10.1428571,114.285714 C4.54111182,114.285714 0,109.744602 0,104.142857 C0,101.452804 1.06861938,98.8729288 2.97077408,96.9707741 C21.0844672,78.8570809 34.6697371,65.2718111 43.7265837,56.2149645 C52.9410956,47.0004525 72.8837096,84.2006957 65.4157056,91.6686997 Z" id="Path-40" fill="#FF287A"></path>
            <path d="M87.8197176,45.0210266 C94.5144198,51.7157288 94.5144198,62.5699855 87.8197176,69.2646877 L64.2987589,92.856621 C66.6710149,85.7141118 64.2857143,78.5714286 57.1428571,71.4285714 C50,64.2857143 31.942639,46.2478372 2.97077408,17.3149402 C1.06861938,15.4127855 0,12.8329101 0,10.1428571 C0,4.54111182 4.54111182,9.09494702e-13 10.1428571,9.09494702e-13 L19.1293446,9.09494702e-13 C34.2845726,9.09494702e-13 48.8190819,6.02039088 59.5354464,16.7367554 L87.8197176,45.0210266 Z" id="Path-40" fill="#FFFFFF"></path>
        </g>
    </g>
</svg>
