<svg xmlns="http://www.w3.org/2000/svg" width="64" height="64" viewBox="0 0 64 64">
    <g fill="none" fill-rule="evenodd">
        <path fill="#FF287A" d="M30.02 7.868c0-.613.228-1.204.641-1.662a2.568 2.568 0 0 1 3.587-.208l12.55 10.977v7.766c0 .768-.288 1.51-.807 2.083a3.21 3.21 0 0 1-4.484.25l-7.245-6.37a12.42 12.42 0 0 1-4.242-9.328V7.868z"/>
        <path fill="#00125F" fill-opacity="1.0" d="M59.349 5.993a2.563 2.563 0 0 1 1.686-.63c1.403 0 2.54 1.119 2.54 2.5v3.513a12.42 12.42 0 0 1-4.242 9.328l-8.302 7.299A6.426 6.426 0 0 1 42.567 28l-5.059-4.454c.619.494 2.837-.93 6.654-4.273 3.198-2.802 8.26-7.229 15.187-13.28z"/>
        <path fill="#FF287A" d="M56.132 30.02c.613 0 1.204.228 1.662.641a2.568 2.568 0 0 1 .208 3.587l-10.977 12.55h-7.766c-.768 0-1.51-.288-2.083-.807a3.21 3.21 0 0 1-.25-4.484l6.37-7.245a12.42 12.42 0 0 1 9.328-4.242h3.508z"/>
        <path fill="#00125F" fill-opacity="1.0" d="M58.007 59.349c.407.464.63 1.064.63 1.686 0 1.403-1.119 2.54-2.5 2.54h-3.513a12.42 12.42 0 0 1-9.328-4.242l-7.299-8.302A6.426 6.426 0 0 1 36 42.567l4.454-5.059c-.494.619.93 2.837 4.273 6.654 2.802 3.198 7.229 8.26 13.28 15.187z"/>
        <g>
            <path fill="#FF287A" d="M33.98 56.132c0 .613-.228 1.204-.641 1.662a2.568 2.568 0 0 1-3.587.208l-12.55-10.977v-7.766c0-.768.288-1.51.807-2.083a3.21 3.21 0 0 1 4.484-.25l7.245 6.37a12.42 12.42 0 0 1 4.242 9.328v3.508z"/>
            <path fill="#00125F" fill-opacity="1.0" d="M4.651 58.007a2.563 2.563 0 0 1-1.686.63c-1.403 0-2.54-1.119-2.54-2.5v-3.513a12.42 12.42 0 0 1 4.242-9.328l8.302-7.299a6.426 6.426 0 0 1 8.464.003l5.059 4.454c-.619-.494-2.837.93-6.654 4.273-3.198 2.802-8.26 7.229-15.187 13.28z"/>
        </g>
        <g>
            <path fill="#FF287A" d="M9.638 33.98a16.22 16.22 0 0 0 12.182-5.51l2.53-2.879a5.053 5.053 0 0 0-3.795-8.389h-3.58L7.131 28.457a3.33 3.33 0 0 0 2.507 5.523z"/>
            <path fill="#00125F" fill-opacity="1.0" d="M5.993 4.651a2.563 2.563 0 0 1-.63-1.686c0-1.403 1.119-2.54 2.5-2.54h3.513a12.42 12.42 0 0 1 9.328 4.242l7.299 8.302A6.426 6.426 0 0 1 28 21.433l-4.454 5.059c.494-.619-.93-2.837-4.273-6.654-2.802-3.198-7.229-8.26-13.28-15.187z"/>
        </g>
    </g>
</svg>
