<?xml version="1.0" encoding="UTF-8"?>
<svg viewBox="0 0 200 200" version="1.1" xmlns="http://www.w3.org/2000/svg" xmlns:xlink="http://www.w3.org/1999/xlink">
    <!-- Generator: Sketch 48.2 (47327) - http://www.bohemiancoding.com/sketch -->
    <title>querycon-pp</title>
    <desc>Created with Sketch.</desc>
    <defs></defs>
    <g id="Page-1" stroke="none" stroke-width="1" fill="none" fill-rule="evenodd">
        <g id="querycon-pp">
                <path d="M108.253184,64.5989812 C106.982583,63.2414778 105.651581,61.8244617 104.25522,60.3457944 C81.6241299,36.3831776 81.8329466,0 97.9118329,0 C100.5058,0 103.359629,1.45794393 107.081206,5.37850467 C110.802784,9.29906542 134.060325,33.7523364 143.211137,43.3691589 C162.672854,63.0700935 128.597286,86.3345153 108.253184,64.5989812 Z" id="Shape" fill="#FF287A"></path>
                <path d="M179.317865,5.37850467 C175.605568,9.28971963 152.338747,33.7523364 143.192575,43.3738318 C123.730858,63.0700935 120.296984,67.1588785 108.227378,64.5700935 L108.259861,64.6028037 L110.487239,66.9813084 L121.679814,78.9719626 C131.554524,89.3457944 136.064965,92.817757 143.183295,92.817757 C153.517401,92.817757 158.352668,85.5046729 182.106729,60.3457944 C204.756381,36.3831776 204.547564,0 188.487239,0 C185.888631,0 183.044084,1.45794393 179.317865,5.37850467 Z" id="Shape" fill="#FFFFFF"></path>
                <path d="M64.1009694,92.3455765 C62.7676237,93.6116729 61.3765676,94.9372418 59.9257541,96.3271028 C36.12529,119.11215 0,118.901869 0,102.728972 C0,100.116822 1.44779582,97.2429907 5.34106729,93.5 L43.0672854,57.1121495 C62.6450116,37.5186916 85.7199951,71.8169384 64.1009694,92.3455765 Z" id="Shape" fill="#FF287A"></path>
                <path d="M0,11.5 C0,14.1121495 1.44779582,16.9859813 5.34106729,20.7336449 C9.23433875,24.4813084 33.5174014,47.9018692 43.0672854,57.1168224 C62.6310905,76.7149533 66.6914153,80.1728972 64.1206497,92.3224299 L64.1531323,92.2943925 L66.5150812,90.0514019 L78.4222738,78.7757009 C88.7238979,68.8271028 92.1716937,64.2897196 92.1716937,57.1214953 C92.1716937,46.7149533 84.9048724,41.8457944 59.9257541,17.9205607 C47.0719258,5.60747664 30.6264501,0 18.2180974,0 C7.64269142,0 0,4.06074766 0,11.5 Z" id="Shape" fill="#FFFFFF"></path>
                <path d="M95.6519722,139.556075 C118.283063,163.518692 118.074246,199.901869 102.013921,199.901869 C99.4199536,199.901869 96.5707657,198.439252 92.8445476,194.523364 C89.1183295,190.607477 65.8654292,166.149533 56.7146172,156.542056 C37.2529002,136.841121 77.668081,121.006736 91.6519165,135.337512 C93.0035944,136.722725 94.2559049,138.078556 95.6519722,139.556075 Z" id="Shape" fill="#FF287A"></path>
                <path d="M56.7146172,107.093458 C46.3805104,107.093458 41.549884,114.411215 17.7911833,139.556075 C-4.84918794,163.518692 -4.64037123,199.901869 11.4199536,199.901869 C14.0139211,199.901869 16.863109,198.443925 20.5893271,194.523364 C24.3155452,190.602804 47.5684455,166.149533 56.7146172,156.537383 C76.1809745,136.836449 79.6102088,132.742991 91.6798144,135.327103 L91.6519722,135.299065 L89.424594,132.920561 L78.2273782,120.939252 C68.3480278,110.565421 63.8422274,107.098131 56.7285383,107.098131 L56.7146172,107.093458 Z" id="Shape" fill="#FFFFFF"></path>
                <path d="M135.775113,107.585833 C137.117927,106.310819 138.519337,104.975441 139.981439,103.574766 C163.777262,80.7897196 199.907193,81 199.907193,97.1962617 C199.907193,99.8084112 198.454756,102.682243 194.566125,106.429907 C190.677494,110.17757 166.389791,133.574766 156.844548,142.78972 C137.280742,162.38785 114.181012,128.089628 135.775113,107.585833 Z" id="Shape" fill="#FF287A"></path>
                <path d="M135.75406,107.61215 L133.392111,109.85514 L121.4942,121.126168 C111.192575,131.074766 107.74478,135.61215 107.74478,142.780374 C107.74478,153.186916 115.011601,158.060748 139.986079,181.981308 C163.781903,204.771028 199.911833,204.560748 199.911833,188.392523 C199.911833,185.775701 198.459397,182.901869 194.575406,179.154206 C190.691415,175.406542 166.394432,151.985981 156.849188,142.775701 C137.280742,123.172897 133.220418,119.714953 135.791183,107.565421 L135.75406,107.61215 Z" id="Shape" fill="#FFFFFF"></path>
        </g>
    </g>
</svg>
