<?xml version="1.0" encoding="UTF-8"?>
<svg width="40px" height="40px" viewBox="0 0 40 40" version="1.1" xmlns="http://www.w3.org/2000/svg" xmlns:xlink="http://www.w3.org/1999/xlink">
    <g id="Page-1" stroke="none" stroke-width="1" fill="none" fill-rule="evenodd">
        <g id="querycon18-more-speakers-link-to-topics" transform="translate(-1046.000000, -5301.000000)">
            <g id="the-speakers" transform="translate(0.000000, 3096.000000)">
                <g id="Group-24" transform="translate(510.000000, 2202.000000)">
                    <g id="right-facing-arrow" transform="translate(536.000000, 3.000000)">
                        <circle id="Oval-4" fill="#3F64ED" cx="20" cy="20" r="20"></circle>
                        <path d="M29.1225219,22.0608492 L21.5367116,29.4307571 C20.7557311,30.1897476 19.4887628,30.1897476 18.7077823,29.4307571 C17.9268018,28.6727666 17.9268018,27.441782 18.7077823,26.6837915 L23.5286618,21.99985 L11.99995,21.99985 C10.8949776,21.99985 10,21.1048612 10,19.999875 C10,18.8958888 10.8949776,17.9999 11.99995,17.9999 L23.5286618,17.9999 L18.7077823,13.3169585 C17.9268018,12.557968 17.9268018,11.3289834 18.7077823,10.5699929 C19.0987725,10.1899976 19.6107597,10 20.1227469,10 C20.6337342,10 21.1457214,10.1899976 21.5367116,10.5699929 L29.1225219,17.9399008 C30.2924927,19.0758866 30.2924927,20.9248634 29.1225219,22.0608492 Z" id="Fill-1" fill="#FFFFFF"></path>
                    </g>
                </g>
            </g>
        </g>
    </g>
</svg>
