<svg width="48" height="48" xmlns="http://www.w3.org/2000/svg" xmlns:xlink="http://www.w3.org/1999/xlink"><defs><path d="M12.71 22.291L0 11.118V0l12.71 11.118L25.42 0v11.118L12.71 22.29z" id="a"/><linearGradient x1="52.343%" y1="42.53%" x2="68.416%" y2="69.935%" id="c"><stop stop-color="#E7F3FF" offset="0%"/><stop stop-color="#93C4FF" offset="100%"/></linearGradient><path d="M12.71 22.291L0 11.118V0l12.71 11.118L25.42 0v11.118L12.71 22.29z" id="d"/><path d="M12.71 22.291L0 11.118V0l12.71 11.118L25.42 0v11.118L12.71 22.29z" id="f"/><path d="M12.71 22.291L0 11.118V0l12.71 11.118L25.42 0v11.118L12.71 22.29z" id="h"/></defs><g fill="none" fill-rule="evenodd"><g transform="translate(22.5 1.5)"><mask id="b" fill="#fff"><use xlink:href="#a"/></mask><path d="M0 4.218c0-.464.173-.912.486-1.259a1.946 1.946 0 0 1 2.717-.158l9.507 8.317V17c0 .582-.217 1.143-.611 1.578a2.432 2.432 0 0 1-3.397.189l-5.488-4.825A9.41 9.41 0 0 1 0 6.876V4.218z" fill="#FF287A" mask="url(#b)"/><path d="M13.226 10.111l-5.13 4.264c-1.314 1.092-2.665 1.708-4.053 1.849l2.178 1.34 5.201-3.726 2.652-2.909-.848-.818z" fill-opacity=".04" fill="#202532" mask="url(#b)"/><path d="M21.234 3.657c-4.745 4.147-8.252 7.214-10.52 9.201-2.892 2.533-4.572 3.612-5.041 3.237l.686.605a9.618 9.618 0 0 0 12.706.004l2.18-1.916a12.288 12.288 0 0 0 4.176-9.23 2.525 2.525 0 0 0-4.187-1.9z" fill="url(#c)" mask="url(#b)"/><path d="M22.219 2.797a1.942 1.942 0 0 1 1.277-.477c1.063 0 1.925.848 1.925 1.895v2.661a9.41 9.41 0 0 1-3.214 7.067l-6.29 5.529a4.868 4.868 0 0 1-6.412-.002l-3.832-3.375c.469.375 2.149-.704 5.04-3.237 2.423-2.123 6.259-5.476 11.506-10.06z" fill-opacity=".6" fill="#00125F" mask="url(#b)"/></g><g transform="rotate(90 12 34.5)"><mask id="e" fill="#fff"><use xlink:href="#d"/></mask><path d="M0 4.218c0-.464.173-.912.486-1.259a1.946 1.946 0 0 1 2.717-.158l9.507 8.317V17c0 .582-.217 1.143-.611 1.578a2.432 2.432 0 0 1-3.397.189l-5.488-4.825A9.41 9.41 0 0 1 0 6.876V4.218z" fill="#FF287A" mask="url(#e)"/><path d="M13.226 10.111l-5.13 4.264c-1.314 1.092-2.665 1.708-4.053 1.849l2.178 1.34 5.201-3.726 2.652-2.909-.848-.818z" fill-opacity=".04" fill="#202532" mask="url(#e)"/><path d="M21.234 3.657c-4.745 4.147-8.252 7.214-10.52 9.201-2.892 2.533-4.572 3.612-5.041 3.237l.686.605a9.618 9.618 0 0 0 12.706.004l2.18-1.916a12.288 12.288 0 0 0 4.176-9.23 2.525 2.525 0 0 0-4.187-1.9z" fill="url(#c)" mask="url(#e)"/><path d="M22.219 2.797a1.942 1.942 0 0 1 1.277-.477c1.063 0 1.925.848 1.925 1.895v2.661a9.41 9.41 0 0 1-3.214 7.067l-6.29 5.529a4.868 4.868 0 0 1-6.412-.002l-3.832-3.375c.469.375 2.149-.704 5.04-3.237 2.423-2.123 6.259-5.476 11.506-10.06z" fill-opacity=".6" fill="#00125F" mask="url(#e)"/></g><g transform="rotate(-180 12.75 23.25)"><mask id="g" fill="#fff"><use xlink:href="#f"/></mask><path d="M0 4.218c0-.464.173-.912.486-1.259a1.946 1.946 0 0 1 2.717-.158l9.507 8.317V17c0 .582-.217 1.143-.611 1.578a2.432 2.432 0 0 1-3.397.189l-5.488-4.825A9.41 9.41 0 0 1 0 6.876V4.218z" fill="#FF287A" mask="url(#g)"/><path d="M13.226 10.111l-5.13 4.264c-1.314 1.092-2.665 1.708-4.053 1.849l2.178 1.34 5.201-3.726 2.652-2.909-.848-.818z" fill-opacity=".04" fill="#202532" mask="url(#g)"/><path d="M21.234 3.657c-4.745 4.147-8.252 7.214-10.52 9.201-2.892 2.533-4.572 3.612-5.041 3.237l.686.605a9.618 9.618 0 0 0 12.706.004l2.18-1.916a12.288 12.288 0 0 0 4.176-9.23 2.525 2.525 0 0 0-4.187-1.9z" fill="url(#c)" mask="url(#g)"/><path d="M22.219 2.797a1.942 1.942 0 0 1 1.277-.477c1.063 0 1.925.848 1.925 1.895v2.661a9.41 9.41 0 0 1-3.214 7.067l-6.29 5.529a4.868 4.868 0 0 1-6.412-.002l-3.832-3.375c.469.375 2.149-.704 5.04-3.237 2.423-2.123 6.259-5.476 11.506-10.06z" fill-opacity=".6" fill="#00125F" mask="url(#g)"/></g><g transform="rotate(-90 13.5 12)"><mask id="i" fill="#fff"><use xlink:href="#h"/></mask><path d="M0 5.559c0 3.533 1.521 6.896 4.175 9.229l2.18 1.916a3.828 3.828 0 0 0 6.355-2.875v-2.711L4.184 3.66A2.523 2.523 0 0 0 0 5.559z" fill="#FF287A" mask="url(#i)"/><path d="M13.226 10.111l-5.13 4.264c-1.314 1.092-2.665 1.708-4.053 1.849l2.178 1.34 5.201-3.726 2.652-2.909-.848-.818z" fill-opacity=".04" fill="#202532" mask="url(#i)"/><path d="M21.234 3.657c-4.745 4.147-8.252 7.214-10.52 9.201-2.892 2.533-4.572 3.612-5.041 3.237l.686.605a9.618 9.618 0 0 0 12.706.004l2.18-1.916a12.288 12.288 0 0 0 4.176-9.23 2.525 2.525 0 0 0-4.187-1.9z" fill="url(#c)" mask="url(#i)"/><path d="M22.219 2.797a1.942 1.942 0 0 1 1.277-.477c1.063 0 1.925.848 1.925 1.895v2.661a9.41 9.41 0 0 1-3.214 7.067l-6.29 5.529a4.868 4.868 0 0 1-6.412-.002l-3.832-3.375c.469.375 2.149-.704 5.04-3.237 2.423-2.123 6.259-5.476 11.506-10.06z" fill-opacity=".6" fill="#00125F" mask="url(#i)"/></g></g></svg>