<?xml version="1.0" encoding="UTF-8"?>
<svg width="48px" height="48px" viewBox="0 0 48 48" version="1.1" xmlns="http://www.w3.org/2000/svg" xmlns:xlink="http://www.w3.org/1999/xlink">
    <!-- Generator: Sketch 50.2 (55047) - http://www.bohemiancoding.com/sketch -->
    <title>querycon-dark-bg</title>
    <desc>Created with Sketch.</desc>
    <defs></defs>
    <g id="Page-1" stroke="none" stroke-width="1" fill="none" fill-rule="evenodd">
        <g id="querycon18-more-speakers-link-to-topics-copy" transform="translate(-132.000000, -149.000000)">
            <g id="querycon-dark-bg" transform="translate(132.000000, 149.000000)">
                <path d="M25.9807642,15.5037555 C25.67582,15.1779547 25.3563796,14.8378708 25.0212529,14.4829907 C19.5897912,8.73196262 19.6399072,0 23.4988399,0 C24.1213921,0 24.8063109,0.349906542 25.6994896,1.29084112 C26.5926682,2.2317757 32.174478,8.10056075 34.3706729,10.4085981 C39.0414849,15.1368224 30.8633485,20.7202837 25.9807642,15.5037555 Z" id="Shape" fill="#FF287A"></path>
                <path d="M43.0362877,1.29084112 C42.1453364,2.22953271 36.5612993,8.10056075 34.3662181,10.4097196 C29.695406,15.1368224 28.8712761,16.1181308 25.9745708,15.4968224 L25.9823666,15.5046729 L26.5169374,16.075514 L29.2031555,18.953271 C31.5730858,21.4429907 32.6555916,22.2762617 34.3639907,22.2762617 C36.8441763,22.2762617 38.0046404,20.5211215 43.7056148,14.4829907 C49.1415313,8.73196262 49.0914153,0 45.2369374,0 C44.6132715,0 43.93058,0.349906542 43.0362877,1.29084112 Z" id="Shape" fill="#00125F"></path>
                <path d="M15.3842326,22.1629384 C15.0642297,22.4668015 14.7303762,22.784938 14.382181,23.1185047 C8.67006961,28.5869159 0,28.5364486 0,24.6549533 C0,24.0280374 0.347470998,23.3383178 1.28185615,22.44 L10.3361485,13.7069159 C15.0348028,9.00448598 20.5727988,17.2360652 15.3842326,22.1629384 Z" id="Shape" fill="#FF287A"></path>
                <path d="M0,2.76 C0,3.38691589 0.347470998,4.07663551 1.28185615,4.97607477 C2.2162413,5.87551402 8.04417633,11.4964486 10.3361485,13.7080374 C15.0314617,18.4115888 16.0059397,19.2414953 15.3889559,22.1573832 L15.3967517,22.1506542 L15.9636195,21.6123364 L18.8213457,18.9061682 C21.2937355,16.5185047 22.1212065,15.4295327 22.1212065,13.7091589 C22.1212065,11.2115888 20.3771694,10.0429907 14.382181,4.30093458 C11.2972622,1.34579439 7.35034803,0 4.37234339,0 C1.83424594,0 0,0.974579439 0,2.76 Z" id="Shape" fill="#00125F"></path>
                <path d="M22.9564733,33.4934579 C28.387935,39.244486 28.337819,47.9764486 24.4833411,47.9764486 C23.8607889,47.9764486 23.1769838,47.6254206 22.2826914,46.6856075 C21.3883991,45.7457944 15.807703,39.8758879 13.6115081,37.5700935 C8.94069606,32.8418692 18.6403394,29.0416165 21.99646,32.4810028 C22.3208627,32.813454 22.6214172,33.1388536 22.9564733,33.4934579 Z" id="Shape" fill="#FF287A"></path>
                <path d="M13.6115081,25.7024299 C11.1313225,25.7024299 9.97197216,27.4586916 4.26988399,33.4934579 C-1.1638051,39.244486 -1.1136891,47.9764486 2.74078886,47.9764486 C3.36334107,47.9764486 4.04714617,47.6265421 4.94143852,46.6856075 C5.83573086,45.7446729 11.4164269,39.8758879 13.6115081,37.568972 C18.2834339,32.8407477 19.1064501,31.8583178 22.0031555,32.4785047 L21.9964733,32.4717757 L21.4619026,31.9009346 L18.7745708,29.0254206 C16.4035267,26.5357009 15.3221346,25.7035514 13.6148492,25.7035514 L13.6115081,25.7024299 Z" id="Shape" fill="#00125F"></path>
                <path d="M32.586027,25.8206 C32.9083025,25.5145965 33.244641,25.1941058 33.5955452,24.8579439 C39.3065429,19.3895327 47.9777262,19.44 47.9777262,23.3271028 C47.9777262,23.9540187 47.6291415,24.6437383 46.6958701,25.5431776 C45.7625986,26.4426168 39.9335499,32.0579439 37.6426914,34.2695327 C32.9473782,38.9730841 27.4034428,30.7415107 32.586027,25.8206 Z" id="Shape" fill="#FF287A"></path>
                <path d="M32.5809745,25.8269159 L32.0141067,26.3652336 L29.1586079,29.0702804 C26.6862181,31.4579439 25.8587471,32.5469159 25.8587471,34.2672897 C25.8587471,36.7648598 27.6027842,37.9345794 33.5966589,43.675514 C39.3076566,49.1450467 47.9788399,49.0945794 47.9788399,45.2142056 C47.9788399,44.5861682 47.6302552,43.8964486 46.6980974,42.9970093 C45.7659397,42.0975701 39.9346636,36.4766355 37.6438051,34.2661682 C32.9473782,29.5614953 31.9729002,28.7315888 32.589884,25.8157009 L32.5809745,25.8269159 Z" id="Shape" fill="#00125F"></path>
            </g>
        </g>
    </g>
</svg>