<?xml version="1.0" encoding="UTF-8"?>
<svg width="126px" height="100px" viewBox="0 0 126 100" version="1.1" xmlns="http://www.w3.org/2000/svg" xmlns:xlink="http://www.w3.org/1999/xlink">
    <!-- Generator: Sketch 48.2 (47327) - http://www.bohemiancoding.com/sketch -->
    <title>twitter bird</title>
    <desc>Created with Sketch.</desc>
    <defs></defs>
    <g id="querycon-questions-section" stroke="none" stroke-width="1" fill="none" fill-rule="evenodd" transform="translate(-737.000000, -9342.000000)">
        <g id="Group-41" transform="translate(305.000000, 8966.000000)" fill="#1DA1F2">
            <g id="Group-40" transform="translate(345.000000, 276.000000)">
                <g id="join-osquery-slack">
                    <g id="Group-34">
                        <g id="Twitter" transform="translate(87.000000, 100.000000)">
                            <g id="layer1">
                                <path d="M39.6260491,100 C87.1764016,100 113.178014,61.5307005 113.178014,28.1727609 C113.178014,27.0801012 113.155224,25.9923715 113.105036,24.9095596 C118.152641,21.3461316 122.540007,16.8992252 126,11.8370836 C121.368194,13.8476662 116.383589,15.2011821 111.154535,15.8114956 C116.491949,12.6861051 120.589506,7.74209534 122.522367,1.8481585 C117.527677,4.73975443 111.996223,6.84139472 106.106925,7.97588161 C101.38944,3.06878131 94.6735734,0 87.236983,0 C72.9610422,0 61.3840461,11.3055274 61.3840461,25.2417863 C61.3840461,27.2228338 61.6108461,29.1497496 62.0543744,30.997904 C40.5686473,29.9421662 21.5172524,19.8966402 8.7684524,4.62163084 C6.54830747,8.35240468 5.26813927,12.6861051 5.26813927,17.3101969 C5.26813927,26.0686597 9.83190064,33.8009114 16.7720469,38.3241059 C12.5308497,38.1961387 8.54668821,37.0591826 5.06401086,35.1667278 C5.06020549,35.2726459 5.06020549,35.3759091 5.06020549,35.4891109 C5.06020549,47.7150221 13.9710167,57.9229721 25.8000127,60.2362464 C23.627752,60.814568 21.3420871,61.1246424 18.9833464,61.1246424 C17.3201299,61.1246424 15.6997533,60.9647825 14.1247409,60.6693744 C17.4158898,70.700135 26.9592209,77.9992586 38.2741371,78.2035222 C29.4263258,84.9760033 18.2802581,89.0094771 6.16650218,89.0094771 C4.08243723,89.0094771 2.02358073,88.8937153 0,88.6600198 C11.4409161,95.8213409 25.0263687,100 39.6273852,100" id="twitter-bird"></path>
                            </g>
                        </g>
                    </g>
                </g>
            </g>
        </g>
    </g>
</svg>